<?xml version="1.0" encoding="UTF-8"?>
<svg width="721px" height="374px" viewBox="0 0 721 374" version="1.1" xmlns="http://www.w3.org/2000/svg" xmlns:xlink="http://www.w3.org/1999/xlink">
    <title>Artboard</title>
    <g id="Artboard" stroke="none" stroke-width="1" fill="none" fill-rule="evenodd">
        <g id="Group" transform="translate(117, 212)">
            <circle id="Oval" stroke="#55565A" stroke-width="3" fill="#F7B500" cx="36" cy="36" r="34.5"></circle>
            <text id="1" font-family="Helvetica-Bold, Helvetica" font-size="28" font-weight="bold" fill="#FFFFFF">
                <tspan x="28.4277344" y="46">1</tspan>
            </text>
        </g>
        <g id="Group-2" transform="translate(321, 212)">
            <circle id="Oval" stroke="#55565A" stroke-width="3" fill="#E02020" cx="36" cy="36" r="34.5"></circle>
            <text id="2" font-family="Helvetica-Bold, Helvetica" font-size="28" font-weight="bold" fill="#FFFFFF">
                <tspan x="28.4277344" y="46">2</tspan>
            </text>
        </g>
        <g id="Group-2" transform="translate(524, 212)">
            <circle id="Oval" stroke="#55565A" stroke-width="3" fill="#32C5FF" cx="36" cy="36" r="34.5"></circle>
            <text id="3" font-family="Helvetica-Bold, Helvetica" font-size="28" font-weight="bold" fill="#FFFFFF">
                <tspan x="28.4277344" y="46">3</tspan>
            </text>
        </g>
        <path id="Line" d="M302.868686,217.388163 L303.740261,217.878424 L315.740261,224.628424 L317.289729,225.5 L315.740261,226.371576 L303.740261,233.121576 L302.868686,233.611837 L301.888163,231.868686 L302.759739,231.378424 L311.432,226.5 L193.5,226.5 L193.5,224.5 L311.432,224.5 L302.759739,219.621576 L301.888163,219.131314 L302.868686,217.388163 Z" fill="#000000" fill-rule="nonzero"></path>
        <path id="Line" d="M206.140578,255.401462 L207.119108,257.145733 L206.246972,257.634998 L197.567,262.503 L205.749399,262.512857 C217.930644,262.526151 228.555364,262.535549 237.623542,262.54105 L239.207651,262.541981 C239.991626,262.542426 240.763483,262.54284 241.523222,262.543224 L243.026541,262.543953 L243.397321,262.544122 L245.220928,262.544893 L245.57959,262.545032 L248.033671,262.545864 C248.26268,262.545931 248.490343,262.545995 248.716659,262.546056 L260.032861,262.546122 C260.248925,262.546066 260.466227,262.546007 260.684767,262.545945 L263.36668,262.545052 L263.710277,262.54492 L265.456117,262.544188 C265.691991,262.544082 265.929103,262.543974 266.167454,262.543862 L267.612413,262.543156 C268.342321,262.542784 269.083373,262.542384 269.835568,262.541956 L271.354815,262.541063 C283.116283,262.533934 297.497626,262.520247 314.498809,262.500001 L315.498808,262.49881 L315.50119,264.498808 L314.501191,264.499999 C297.499537,264.520246 283.117731,264.533934 271.355738,264.541063 L269.836422,264.541956 C269.084192,264.542384 268.343106,264.542783 267.613162,264.543155 L266.168132,264.543862 L265.811517,264.544027 L264.056301,264.544783 C263.825367,264.544876 263.595672,264.544966 263.367215,264.545052 L260.685154,264.545945 L260.358253,264.546036 L248.716276,264.546056 L248.375771,264.545962 L245.935685,264.545166 C245.698583,264.545078 245.460135,264.544987 245.22034,264.544893 L243.765415,264.544286 C243.520235,264.544178 243.273708,264.544067 243.025834,264.543952 L241.522437,264.543224 C240.762659,264.54284 239.990763,264.542425 239.206749,264.54198 L237.622564,264.54105 C228.553953,264.535549 217.92883,264.526151 205.747165,264.512856 L197.566,264.503 L206.233535,269.391839 L207.104549,269.883096 L206.122035,271.625125 L205.251021,271.133868 L193.258743,264.370157 L191.710273,263.496811 L193.260736,262.627007 L205.268443,255.890727 L206.140578,255.401462 Z" fill="#000000" fill-rule="nonzero"></path>
        <path id="Line" d="M508.868686,218.388163 L509.740261,218.878424 L521.740261,225.628424 L523.289729,226.5 L521.740261,227.371576 L509.740261,234.121576 L508.868686,234.611837 L507.888163,232.868686 L508.759739,232.378424 L517.432,227.5 L399.5,227.5 L399.5,225.5 L517.432,225.5 L508.759739,220.621576 L507.888163,220.131314 L508.868686,218.388163 Z" fill="#000000" fill-rule="nonzero"></path>
        <path id="Line" d="M410.140578,256.401462 L411.119108,258.145733 L410.246972,258.634998 L401.567,263.503 L409.749399,263.512857 C421.930644,263.526151 432.555364,263.535549 441.623542,263.54105 L443.207651,263.541981 C443.991626,263.542426 444.763483,263.54284 445.523222,263.543224 L447.026541,263.543953 L447.397321,263.544122 L449.220928,263.544893 L449.57959,263.545032 L452.033671,263.545864 C452.26268,263.545931 452.490343,263.545995 452.716659,263.546056 L464.032861,263.546122 C464.248925,263.546066 464.466227,263.546007 464.684767,263.545945 L467.36668,263.545052 L467.710277,263.54492 L469.456117,263.544188 C469.691991,263.544082 469.929103,263.543974 470.167454,263.543862 L471.612413,263.543156 C472.342321,263.542784 473.083373,263.542384 473.835568,263.541956 L475.354815,263.541063 C487.116283,263.533934 501.497626,263.520247 518.498809,263.500001 L519.498808,263.49881 L519.50119,265.498808 L518.501191,265.499999 C501.499537,265.520246 487.117731,265.533934 475.355738,265.541063 L473.836422,265.541956 C473.084192,265.542384 472.343106,265.542783 471.613162,265.543155 L470.168132,265.543862 L469.811517,265.544027 L468.056301,265.544783 C467.825367,265.544876 467.595672,265.544966 467.367215,265.545052 L464.685154,265.545945 L464.358253,265.546036 L452.716276,265.546056 L452.375771,265.545962 L449.935685,265.545166 C449.698583,265.545078 449.460135,265.544987 449.22034,265.544893 L447.765415,265.544286 C447.520235,265.544178 447.273708,265.544067 447.025834,265.543952 L445.522437,265.543224 C444.762659,265.54284 443.990763,265.542425 443.206749,265.54198 L441.622564,265.54105 C432.553953,265.535549 421.92883,265.526151 409.747165,265.512856 L401.566,265.503 L410.233535,270.391839 L411.104549,270.883096 L410.122035,272.625125 L409.251021,272.133868 L397.258743,265.370157 L395.710273,264.496811 L397.260736,263.627007 L409.268443,256.890727 L410.140578,256.401462 Z" fill="#000000" fill-rule="nonzero"></path>
        <path id="Line-2" d="M620.740261,234.878424 L621.611837,235.368686 L620.631314,237.111837 L619.759739,236.621576 L607.759739,229.871576 L606.210271,229 L607.759739,228.128424 L619.759739,221.378424 L620.631314,220.888163 L621.611837,222.631314 L620.740261,223.121576 L612.067,228 L657.790026,228 L657.790026,268.046875 L608.486301,268.046875 L608.486301,266.046875 L655.79,266.046 L655.79,230 L612.067,230 L620.740261,234.878424 Z" fill="#000000" fill-rule="nonzero"></path>
        <path id="Line-2" d="M352.740261,295.878424 L353.611837,296.368686 L352.631314,298.111837 L351.759739,297.621576 L339.759739,290.871576 L338.210271,290 L339.759739,289.128424 L351.759739,282.378424 L352.631314,281.888163 L353.611837,283.631314 L352.740261,284.121576 L344.067,289 L375,289 L375,329.046875 L340.335801,329.046875 L340.335801,327.046875 L373,327.046 L373,291 L344.067,291 L352.740261,295.878424 Z" transform="translate(357.5, 309.0234) rotate(90) translate(-357.5, -309.0234)" fill="#000000" fill-rule="nonzero"></path>
        <path id="Line-2" d="M73.7402612,234.878424 L74.6118368,235.368686 L73.6313143,237.111837 L72.7597388,236.621576 L60.7597388,229.871576 L59.2102711,229 L60.7597388,228.128424 L72.7597388,221.378424 L73.6313143,220.888163 L74.6118368,222.631314 L73.7402612,223.121576 L65.067,228 L110.790026,228 L110.790026,268.046875 L61.4863014,268.046875 L61.4863014,266.046875 L108.79,266.046 L108.79,230 L65.067,230 L73.7402612,234.878424 Z" transform="translate(85.895, 248.0234) scale(-1, -1) translate(-85.895, -248.0234)" fill="#000000" fill-rule="nonzero"></path>
        <text id="p12" font-family="Helvetica" font-size="20" font-weight="normal" fill="#090909">
            <tspan x="231.630859" y="207">p</tspan>
            <tspan x="242.753906" y="207">12</tspan>
        </text>
        <text id="p23" font-family="Helvetica" font-size="20" font-weight="normal" fill="#090909">
            <tspan x="435.630859" y="207">p</tspan>
            <tspan x="446.753906" y="207">23</tspan>
        </text>
        <text id="p32" font-family="Helvetica" font-size="20" font-weight="normal" fill="#090909">
            <tspan x="435.630859" y="286">p</tspan>
            <tspan x="446.753906" y="286">32</tspan>
        </text>
        <text id="p22" font-family="Helvetica" font-size="20" font-weight="normal" fill="#090909">
            <tspan x="340.630859" y="349">p</tspan>
            <tspan x="351.753906" y="349">22</tspan>
        </text>
        <text id="p21" font-family="Helvetica" font-size="20" font-weight="normal" fill="#090909">
            <tspan x="231.630859" y="286">p</tspan>
            <tspan x="242.753906" y="286">21</tspan>
        </text>
        <text id="p33" font-family="Helvetica" font-size="20" font-weight="normal" fill="#090909">
            <tspan x="675.630859" y="251">p</tspan>
            <tspan x="686.753906" y="251">33</tspan>
        </text>
        <text id="p11" font-family="Helvetica" font-size="20" font-weight="normal" fill="#090909">
            <tspan x="12.1054688" y="251">p</tspan>
            <tspan x="23.2285156" y="251">11</tspan>
        </text>
        <g id="Group" transform="translate(117, 59)">
            <circle id="Oval" stroke="#F7B500" stroke-width="3" cx="36" cy="36" r="34.5"></circle>
            <text id="a" font-family="Helvetica-Bold, Helvetica" font-size="28" font-weight="bold" fill="#F7B500">
                <tspan x="28.4277344" y="46">a</tspan>
            </text>
        </g>
        <g id="Group-2" transform="translate(524, 59)">
            <circle id="Oval" stroke="#32C5FF" stroke-width="3" cx="36" cy="36" r="34.5"></circle>
            <text id="c" font-family="Helvetica-Bold, Helvetica" font-size="28" font-weight="bold" fill="#32C5FF">
                <tspan x="28.4277344" y="46">c</tspan>
            </text>
        </g>
        <g id="Group-2" transform="translate(321, 59)">
            <circle id="Oval" stroke="#ED4036" stroke-width="3" cx="36" cy="36" r="34.5"></circle>
            <text id="b" font-family="Helvetica-Bold, Helvetica" font-size="28" font-weight="bold" fill="#ED4036">
                <tspan x="26.8964844" y="46">b</tspan>
            </text>
        </g>
        <text id="observed" font-family="Helvetica" font-size="20" font-weight="normal" fill="#55565A">
            <tspan x="21.7246094" y="102">observed</tspan>
        </text>
        <text id="hidden" font-family="Helvetica" font-size="20" font-weight="normal" fill="#55565A">
            <tspan x="122.941406" y="333">hidden</tspan>
        </text>
        <text id="emission-probability" font-family="Helvetica" font-size="18" font-weight="normal" fill="#55565A">
            <tspan x="53.9755859" y="167">emission </tspan>
            <tspan x="42.9541016" y="189">probability</tspan>
        </text>
        <path id="Line" d="M211.280233,151.496268 L212.26009,153.239793 L211.388328,153.729722 L202.714,158.604 L205.646206,158.605956 L206.646206,158.606338 L206.645443,160.606337 L205.645443,160.605956 L202.713,160.604 L211.383843,165.48657 L212.255232,165.977163 L211.274045,167.71994 L210.402656,167.229347 L198.405232,160.47477 L196.856097,159.602603 L198.405897,158.731619 L210.40847,151.986197 L211.280233,151.496268 Z M386.647534,158.650534 L386.647546,160.650534 L379.647903,160.650475 L379.647948,158.650475 L386.647534,158.650534 Z M396.645914,158.65016 L396.646028,160.65016 L389.645288,160.650475 L389.645223,158.650475 L396.645914,158.65016 Z M369.649618,158.649955 L370.649618,158.650026 L376.649814,158.65037 L376.649719,160.65037 L370.649477,160.650026 L369.649477,160.649955 L369.649618,158.649955 Z M366.646619,158.649711 L366.646435,160.649711 L359.646,160.649 L359.646222,158.649 L366.646619,158.649711 Z M406.651894,158.649327 L406.652094,160.649327 L399.649668,160.649955 L399.64951,158.649955 L406.651894,158.649327 Z M416.641216,158.648111 L416.641487,160.648111 L410.642857,160.648882 L409.642857,160.649001 L409.64262,158.649001 L410.64262,158.648882 L416.641216,158.648111 Z M351.899925,158.648003 L356.64981,158.64864 L356.649552,160.64864 L351.899642,160.648003 L351.768299,160.647984 L349.649885,160.647679 L349.650176,158.647679 L351.631071,158.647964 C351.724906,158.647978 351.814316,158.64799 351.899925,158.648003 Z M345.288481,158.646998 L345.642786,158.647056 L346.642786,158.647217 L346.642464,160.647217 L345.642464,160.647056 C345.518365,160.647036 345.400471,160.647016 345.288156,160.646998 L339.641159,160.646039 L339.64151,158.646039 L345.288481,158.646998 Z M426.65149,158.646561 L426.651824,160.646561 L424.155666,160.646973 C424.077009,160.646986 424.001528,160.646998 423.928596,160.64701 L419.64852,160.647678 L419.648216,158.647678 L423.928272,158.64701 L424.03966,158.646992 L426.65149,158.646561 Z M436.647028,158.644726 L436.647416,160.644726 L435.288159,160.644989 L435.121516,160.645021 L430.649086,160.645858 L429.649086,160.646039 L429.648724,158.646039 L430.648724,158.645858 L434.96252,158.645052 C435.100076,158.645025 435.246596,158.644997 435.403561,158.644967 L436.647028,158.644726 Z M334.172546,158.645022 L336.647443,158.645493 L336.647065,160.645493 L334.172161,160.645022 L334.057836,160.645 L329.646504,160.644125 L329.646907,158.644125 L333.948053,158.644978 C334.020219,158.644992 334.094841,158.645007 334.172546,158.645022 Z M446.639933,158.64264 L446.640369,160.64264 L445.281235,160.642936 C445.167396,160.64296 445.059223,160.642984 444.956089,160.643006 L440.641045,160.64392 L439.641045,160.644126 L439.640632,158.644126 L440.640632,158.64392 L444.955656,158.643006 L445.168827,158.64296 L446.639933,158.64264 Z M319.642766,158.641967 L320.642766,158.642191 L324.168237,158.64297 C324.245987,158.642987 324.326823,158.643004 324.411371,158.643022 L326.6441,158.643502 L326.643673,160.643502 L324.410938,160.643022 L324.286821,160.642995 L320.642316,160.642191 L319.642316,160.641967 L319.642766,158.641967 Z M311.32764,158.640005 L315.28726,158.640956 L315.641893,158.64104 L316.641893,158.641276 L316.641422,160.641276 L315.641422,160.64104 L315.459681,160.640997 L311.327152,160.640005 L311.114162,160.639953 L309.643461,160.639592 L309.643952,158.639592 L311.002775,158.639925 C311.116514,158.639953 311.224595,158.63998 311.32764,158.640005 Z M456.646915,158.640326 L456.647394,160.640326 L453.926944,160.640975 L453.819507,160.641 L449.644554,160.641968 L449.644096,158.641968 L453.714938,158.641025 C453.783328,158.641009 453.85363,158.640992 453.926472,158.640975 L456.646915,158.640326 Z M466.644969,158.637814 L466.645487,160.637814 L465.645487,160.638073 L462.123946,160.638972 L462.004955,160.639002 L459.648274,160.639592 L459.647775,158.639592 L461.880359,158.639033 C461.964891,158.639012 462.04571,158.638992 462.123442,158.638972 L465.644969,158.638073 L466.644969,158.637814 Z M303.347126,158.637995 L303.442254,158.63802 L306.649337,158.638843 L306.648827,160.638842 L303.538219,160.638045 C303.47334,160.638028 303.409678,160.638011 303.346607,160.637995 L299.647634,160.637024 L299.648163,158.637024 L303.347126,158.637995 Z M476.648218,158.635119 L476.648771,160.635119 L473.518615,160.63598 L473.421771,160.636006 L470.647136,160.636756 L469.647136,160.637023 L469.6466,158.637023 L470.6466,158.636756 L473.325837,158.636032 C473.389048,158.636015 473.452918,158.635997 473.51807,158.63598 L476.648218,158.635119 Z M292.138242,158.634977 L292.253677,158.635009 L295.648242,158.635946 L296.648242,158.636218 L296.647696,160.636218 L295.647696,160.635945 L292.364286,160.63504 C292.291494,160.63502 292.216169,160.634999 292.137684,160.634977 L289.645358,160.634278 L289.645921,158.634278 L292.138242,158.634977 Z M486.639522,158.632262 L486.640106,160.632262 L484.149325,160.632988 L484.034005,160.633021 L480.641919,160.633995 L479.641919,160.63428 L479.64135,158.63428 L480.64135,158.633995 L483.922369,158.633053 C483.99509,158.633032 484.07034,158.63301 484.148745,158.632988 L486.639522,158.632262 Z M281.89026,158.632037 L284.96782,158.632937 C285.103845,158.632976 285.248704,158.633018 285.40388,158.633063 L286.644567,158.633422 L286.643989,160.633422 L285.28883,160.63303 L285.124073,160.632982 L281.889671,160.632037 L281.758706,160.631998 L279.643796,160.631372 L279.644389,158.631372 L281.622192,158.631958 C281.715745,158.631985 281.804893,158.632012 281.89026,158.632037 Z M496.650298,158.629249 L496.650911,160.629249 L494.405382,160.629936 C494.320037,160.629962 494.23847,160.629987 494.160058,160.630011 L491.006378,160.630965 L490.651184,160.631071 L489.651184,160.631371 L489.650585,158.631371 L490.650585,158.631072 C490.774995,158.631034 490.893184,158.630999 491.005778,158.630965 L494.159449,158.630011 L494.27951,158.629975 L496.650298,158.629249 Z M271.893571,158.629017 L274.973497,158.629963 L275.184553,158.630027 L276.650912,158.630473 L276.650304,160.630473 L275.294794,160.630061 C275.1821,160.630026 275.075006,160.629994 274.972888,160.629963 L271.892952,160.629017 L271.761924,160.628977 L269.646493,160.62832 L269.647115,158.62832 L271.625373,158.628934 C271.718971,158.628963 271.808161,158.628991 271.893571,158.629017 Z M506.650197,158.626101 L506.650837,160.626101 L503.933378,160.626968 L503.826083,160.627003 L501.004786,160.627894 L500.649382,160.628005 L499.649382,160.628319 L499.648755,158.628319 L500.648755,158.628006 L500.83089,158.627948 L503.721476,158.627036 C503.789786,158.627014 503.86,158.626992 503.932742,158.626969 L506.650197,158.626101 Z M262.359406,158.626009 L265.288329,158.626946 L265.643788,158.627059 L266.643788,158.627377 L266.643153,160.627377 L265.643153,160.627059 C265.51865,160.62702 265.400372,160.626982 265.287693,160.626946 L262.358763,160.626009 L262.247671,160.625973 L259.641262,160.625131 L259.64191,158.625131 L262.132962,158.625936 C262.211388,158.625962 262.286661,158.625986 262.359406,158.626009 Z M516.649033,158.622825 L516.649698,160.622825 L515.649698,160.623157 L513.142323,160.623987 L513.048532,160.624018 L510.650673,160.624804 L509.650673,160.625131 L509.65002,158.625131 L510.65002,158.624805 L512.953654,158.624049 C513.016715,158.624029 513.079176,158.624008 513.141664,158.623987 L515.649033,158.623158 L516.649033,158.622825 Z M249.65,158.621821 L250.65,158.622157 L253.155872,158.622996 L253.249611,158.623027 L255.646269,158.623821 L256.646269,158.624151 L256.645609,160.624151 L255.645609,160.623821 L253.343114,160.623058 C253.280087,160.623037 253.21766,160.623016 253.155206,160.622996 L250.649328,160.622157 L249.649328,160.621821 L249.65,158.621821 Z M526.646981,158.619431 L526.647669,160.619431 L525.28934,160.619898 C525.175756,160.619937 525.067822,160.619974 524.964914,160.620009 L522.126122,160.620979 L522.006896,160.62102 L519.647237,160.62182 L519.646561,158.62182 L521.881871,158.621062 C521.966578,158.621033 522.047561,158.621006 522.125442,158.620979 L524.964227,158.62001 L525.176929,158.619937 L526.646981,158.619431 Z M241.322419,158.618973 L241.47295,158.619025 L244.158685,158.619952 C244.236503,158.619978 244.317419,158.620006 244.402057,158.620035 L246.636363,158.6208 L246.635679,160.6208 L244.401371,160.620035 L244.277127,160.619992 L241.615726,160.619075 C241.52233,160.619043 241.424538,160.619009 241.321726,160.618973 L239.639606,160.61839 L239.640301,158.61839 L241.322419,158.618973 Z M536.645242,158.615927 L536.645951,160.615927 L535.645951,160.616282 L533.719124,160.616963 C533.650867,160.616987 533.584508,160.617011 533.519423,160.617034 L531.002193,160.617918 L530.646731,160.618042 L529.646731,160.618391 L529.646032,158.618392 L530.646032,158.618042 L530.828198,158.617978 L533.518718,158.617034 L533.617379,158.616999 L535.645242,158.616282 L536.645242,158.615927 Z M229.642568,158.614854 L230.642568,158.615212 L232.771432,158.615971 L232.868291,158.616006 L235.64748,158.61699 L236.64748,158.617342 L236.646775,160.617342 L235.646775,160.61699 L232.962997,160.61604 C232.899763,160.616017 232.835879,160.615994 232.770721,160.615971 L230.641853,160.615212 L229.641853,160.614854 L229.642568,158.614854 Z M546.644787,158.61232 L546.645517,160.61232 L544.963104,160.612933 C544.860247,160.612971 544.762412,160.613006 544.668975,160.61304 L542.125014,160.613962 L542.005772,160.614005 L539.645868,160.614856 L539.645149,158.614856 L541.880686,158.61405 C541.965406,158.61402 542.0464,158.613991 542.124291,158.613963 L544.668248,158.61304 L544.81178,158.612988 L546.644787,158.61232 Z M221.890955,158.612043 L224.410694,158.612963 L224.54065,158.61301 L226.64625,158.613775 L226.645524,160.613775 L224.675938,160.61306 C224.583137,160.613026 224.494688,160.612994 224.409967,160.612963 L221.890223,160.612043 L221.759424,160.611995 L219.646032,160.611219 L219.646767,158.611219 L221.623231,158.611945 C221.716661,158.611979 221.805694,158.612012 221.890955,158.612043 Z M556.641818,158.608618 L556.642566,160.608618 L555.642566,160.608992 L555.459053,160.60906 L552.948191,160.609996 L552.853047,160.610032 L550.642996,160.610851 L549.642996,160.61122 L549.642257,158.61122 L550.642257,158.610851 L552.755786,158.610068 C552.820693,158.610044 552.884372,158.61002 552.947448,158.609997 L555.283731,158.609126 L555.641818,158.608992 L556.641818,158.608618 Z M210.895637,158.607958 L211.078758,158.608027 L213.558039,158.608958 C213.621987,158.608982 213.686952,158.609006 213.753626,158.609031 L215.642294,158.609736 L216.642294,158.610108 L216.64155,160.610108 L215.64155,160.609735 L213.752878,160.609031 L213.654062,160.608994 L211.251748,160.608092 L210.894879,160.607958 L209.645443,160.607482 L209.646206,158.607482 L210.895637,158.607958 Z M566.651585,158.604821 L566.652351,160.60482 L565.652351,160.605203 L563.726096,160.605939 C563.657848,160.605965 563.591496,160.60599 563.526415,160.606015 L561.008244,160.606972 L560.65258,160.607107 L559.65258,160.607485 L559.651823,158.607485 L560.651822,158.607107 C560.776398,158.60706 560.894744,158.607015 561.007487,158.606972 L563.525653,158.606015 L563.624306,158.605978 L565.651585,158.605203 L566.651585,158.604821 Z" transform="translate(384.6458, 159.6271) rotate(14) translate(-384.6458, -159.6271)" fill="#32C5FF" fill-rule="nonzero"></path>
        <path id="Line" d="M393.936222,148.546911 L394.915466,150.290781 L394.043531,150.780403 L385.368,155.652 L388.299693,155.654616 L389.299693,155.655349 L389.298226,157.655349 L388.298226,157.654615 L385.364,157.652 L394.034907,162.537249 L394.906123,163.028149 L393.924322,164.770581 L393.053106,164.27968 L381.058061,157.52088 L379.509233,156.648168 L381.059339,155.777729 L393.064288,149.036533 L393.936222,148.546911 Z M474.319174,155.696996 L474.824028,155.697024 L479.296995,155.697057 L479.297038,157.697057 L475.325512,157.697048 L474.319052,157.696996 L472.299434,157.696842 L472.299596,155.696842 L474.319174,155.696996 Z M465.833525,155.695839 L467.075301,155.696081 L469.300622,155.696464 L469.300288,157.696464 L467.07493,157.696081 L466.456081,157.695963 L462.300133,157.695037 L462.300612,155.695037 L465.833525,155.695839 Z M489.301245,155.695734 L489.30164,157.695734 L488.30164,157.695931 L487.661067,157.696055 L482.300069,157.696841 L482.299834,155.696841 L487.024533,155.696171 L488.301245,155.695932 L489.301245,155.695734 Z M499.297979,155.692969 L499.298628,157.692968 L498.298628,157.693293 C497.446209,157.693569 496.603348,157.693831 495.770045,157.694077 L493.298807,157.694771 L492.298807,157.695036 L492.298277,155.695036 L493.298277,155.694771 L495.769454,155.694077 C496.602738,155.693831 497.44558,155.69357 498.297979,155.693293 L499.297979,155.692969 Z M452.300462,155.691915 L453.300462,155.692271 C454.151827,155.692575 454.994133,155.692864 455.827382,155.693138 L458.299953,155.693919 L459.299953,155.694221 L459.299349,157.694221 L458.299349,157.693919 L455.826723,157.693138 C454.993457,157.692864 454.151132,157.692575 453.29975,157.692271 L452.29975,157.691915 L452.300462,155.691915 Z M509.301928,155.689117 L509.302772,157.689117 L508.302772,157.689539 C507.0283,157.690077 505.772005,157.690586 504.533885,157.691067 L502.301825,157.691914 L502.301072,155.691914 L504.53311,155.691067 C505.771206,155.690586 507.027479,155.690077 508.301928,155.689539 L509.301928,155.689117 Z M442.301175,155.68779 L443.301175,155.688237 C444.998952,155.688996 446.665852,155.689707 448.301875,155.690368 L449.301875,155.690772 L449.301067,157.690772 L448.301067,157.690368 C446.665015,157.689707 444.998086,157.688996 443.300281,157.688237 L442.300281,157.68779 L442.301175,155.68779 Z M519.300994,155.684417 L519.301994,157.684416 L518.301994,157.684916 C516.607133,157.685764 514.940243,157.686567 513.301325,157.687325 L512.301325,157.687788 L512.300399,155.687789 L513.300399,155.687326 C514.939292,155.686567 516.606157,155.685764 518.300994,155.684917 L519.300994,155.684417 Z M432.299972,155.682867 L433.299972,155.683387 C434.993431,155.684269 436.660011,155.685107 438.29971,155.685903 L439.299709,155.686389 L439.298738,157.686389 L438.298738,157.685903 C436.659016,157.685107 434.992414,157.684268 433.298931,157.683387 L432.298931,157.682867 L432.299972,155.682867 Z M529.29877,155.679025 L529.299898,157.679025 L528.299898,157.679589 C526.608515,157.680542 524.941788,157.681457 523.299718,157.682333 L522.299718,157.682866 L522.298651,155.682867 L523.298651,155.682333 C524.940701,155.681457 526.607407,155.680543 528.29877,155.679589 L529.29877,155.679025 Z M423.302285,155.677873 C424.99332,155.678856 426.660527,155.6798 428.303909,155.680708 L429.303908,155.68126 L429.302804,157.681259 L428.302805,157.680707 C426.659404,157.6798 424.992177,157.678855 423.301123,157.677873 L422.301124,157.677292 L422.302285,155.677292 L423.302285,155.677873 Z M539.302219,155.673053 L539.303454,157.673053 L538.303455,157.673671 C536.614477,157.674714 534.947551,157.675723 533.302677,157.676696 L532.302677,157.677288 L532.301493,155.677289 L533.301493,155.676697 C534.94635,155.675723 536.613259,155.674715 538.302219,155.673671 L539.302219,155.673053 Z M413.302342,155.6718 C414.990795,155.672868 416.657869,155.673901 418.303564,155.674901 L419.303564,155.675509 L419.302349,157.675509 L418.302349,157.674901 C416.656637,157.673901 414.989547,157.672867 413.301078,157.6718 L412.301078,157.671167 L412.302342,155.671168 L413.302342,155.6718 Z M549.30188,155.666594 L549.303208,157.666593 L548.303208,157.667257 L547.322389,157.667904 C547.22856,157.667966 547.139156,157.668025 547.053551,157.668082 L545.78808,157.668913 C545.725576,157.668954 545.663122,157.668995 545.600092,157.669036 L544.268426,157.669898 C544.175992,157.669958 544.079233,157.670021 543.977524,157.670086 L543.302859,157.670522 L542.302859,157.671163 L542.301576,155.671164 L543.301576,155.670522 L543.976234,155.670087 L544.125162,155.669991 L545.598788,155.669036 L545.692978,155.668975 L547.052235,155.668082 L547.183568,155.667996 L548.30188,155.667257 L549.30188,155.666594 Z M402.301657,155.664574 L403.301656,155.665251 L404.282342,155.66591 L404.419828,155.666003 L405.81657,155.666939 L405.910376,155.667001 L407.336549,155.667944 L407.478563,155.668038 L408.302404,155.668581 L409.302404,155.669236 L409.301094,157.669235 L408.301094,157.66858 L407.626221,157.668136 C407.52448,157.668069 407.427691,157.668005 407.33523,157.667944 L406.003247,157.667063 C405.940209,157.667021 405.877748,157.66698 405.815238,157.666938 L404.549805,157.666091 C404.46421,157.666033 404.374816,157.665973 404.280997,157.66591 L403.300303,157.66525 L402.300304,157.664574 L402.301657,155.664574 Z M559.295853,155.659714 L559.297261,157.659714 L558.297261,157.660418 L557.612394,157.660897 L557.461268,157.661003 L556.164301,157.66191 C556.099124,157.661956 556.035241,157.662 555.97203,157.662044 L554.771633,157.662875 C554.693968,157.662928 554.613223,157.662984 554.528775,157.663042 L553.297588,157.663889 L552.297588,157.664574 L552.296219,155.664574 L553.296219,155.66389 L554.527396,155.663042 L554.651368,155.662957 L555.970639,155.662045 L556.066037,155.661978 L557.315841,155.661105 C557.409596,155.661039 557.507771,155.66097 557.610991,155.660898 L558.295853,155.660418 L559.295853,155.659714 Z M392.299692,155.65755 L393.299692,155.658283 L394.229537,155.65895 L394.378837,155.659056 L395.65119,155.659959 L395.746727,155.660027 L397.077164,155.660961 L397.204483,155.661051 L398.297407,155.661815 L399.297407,155.662511 L399.296014,157.662511 L398.296014,157.661815 L397.336567,157.661144 C397.245407,157.66108 397.158702,157.661019 397.075762,157.660961 L395.839745,157.660093 C395.777042,157.660048 395.713949,157.660004 395.649773,157.659958 L394.519369,157.659157 C394.427055,157.659091 394.330196,157.659022 394.2281,157.658949 L393.298225,157.658283 L392.298225,157.657549 L392.299692,155.65755 Z M569.294758,155.652461 L569.296236,157.65246 L568.296236,157.653199 L567.316726,157.65392 L567.179397,157.654021 L565.971973,157.654908 C565.908765,157.654954 565.846224,157.655 565.783725,157.655046 L564.528262,157.655959 L564.398658,157.656053 L563.296313,157.656853 L562.296313,157.657575 L562.294869,155.657575 L563.294869,155.656853 L564.261572,155.656152 C564.354109,155.656085 564.442313,155.656021 564.526809,155.65596 L565.782264,155.655046 L565.876121,155.654978 L567.046754,155.654119 C567.132254,155.654056 567.221546,155.65399 567.315254,155.653921 L568.294758,155.6532 L569.294758,155.652461 Z" transform="translate(477.299, 156.6737) rotate(29) translate(-477.299, -156.6737)" fill="#32C5FF" fill-rule="nonzero"></path>
        <path id="Line" d="M132.648173,163.368303 L133.625065,165.113492 L132.752471,165.601938 L124.069,170.462 L127.002068,170.468404 L128.002066,170.470485 L127.997903,172.470481 L126.997906,172.468399 L124.065,172.462 L132.728,177.358761 L133.598554,177.850835 L132.614405,179.591942 L131.743852,179.099868 L119.757927,172.324905 L118.210277,171.450107 L119.761556,170.581758 L131.775579,163.85675 L132.648173,163.368303 Z M157.998655,170.500373 L158.000064,172.500372 L157.000065,172.501077 L155.641097,172.501915 L155.31051,172.502081 L151.000213,172.502667 L151.000406,170.502667 L154.982766,170.50223 C155.199429,170.502136 155.418534,170.502032 155.64008,170.501915 L156.998656,170.501077 L157.998655,170.500373 Z M141.001017,170.493667 L142.001016,170.494957 C143.772298,170.497242 145.438711,170.499027 147.000252,170.500312 L148.000251,170.501135 L147.998606,172.501134 L146.998606,172.500311 C145.436743,172.499026 143.77002,172.497241 141.998436,172.494955 L140.998437,172.493665 L141.001017,170.493667 Z M167.998705,170.487663 L168.001832,172.487661 L167.001834,172.489225 C165.247923,172.491968 163.581248,172.494294 162.001809,172.496205 L161.00181,172.497415 L160.99939,170.497417 L161.99939,170.496207 C163.578586,170.494296 165.245025,170.49197 166.998706,170.489227 L167.998705,170.487663 Z M131.00206,170.476729 L132.002058,170.478811 L132.248782,170.479324 C133.896088,170.482395 135.480172,170.485165 137.001034,170.487633 L138.001033,170.489256 L137.997787,172.489253 L136.997789,172.48763 C135.476762,172.485162 133.892517,172.482392 132.244837,172.47932 L131.997895,172.478806 L130.997897,172.476725 L131.00206,170.476729 Z M177.998033,170.468986 L178.002111,172.468982 L177.002113,172.471021 C175.274,172.474544 173.607342,172.477774 172.002138,172.480711 L171.00214,172.482541 L170.998481,170.482544 L171.998479,170.480715 C173.603541,170.477778 175.27006,170.474548 176.998035,170.471025 L177.998033,170.468986 Z M184.99705,170.453649 L185.001586,172.453644 L184.001589,172.455912 L183.823923,172.456313 L183.527743,172.456982 C183.483975,172.457081 183.44268,172.457174 183.403369,172.457263 L183.121943,172.457896 L183.058302,172.458039 L182.736983,172.458757 C182.690901,172.458859 182.642559,172.458967 182.590798,172.459082 L182.229959,172.459883 L182.001415,172.46039 L181.001418,172.462599 L180.997001,170.462604 L181.996998,170.460395 C182.079679,170.460212 182.15547,170.460044 182.225528,170.459888 L182.586345,170.459087 L182.661562,170.45892 L182.991133,170.458184 C183.032801,170.458091 183.074523,170.457998 183.117457,170.457901 L183.398867,170.457268 L183.523234,170.456987 L183.819397,170.456319 C183.875004,170.456193 183.934059,170.45606 183.997052,170.455917 L184.99705,170.453649 Z" transform="translate(152.5, 171.4794) rotate(90) translate(-152.5, -171.4794)" fill="#EECC66" fill-rule="nonzero"></path>
        <path id="Line" d="M540.648173,163.368303 L541.625065,165.113492 L540.752471,165.601938 L532.069,170.462 L535.002068,170.468404 L536.002066,170.470485 L535.997903,172.470481 L534.997906,172.468399 L532.065,172.462 L540.728,177.358761 L541.598554,177.850835 L540.614405,179.591942 L539.743852,179.099868 L527.757927,172.324905 L526.210277,171.450107 L527.761556,170.581758 L539.775579,163.85675 L540.648173,163.368303 Z M565.998655,170.500373 L566.000064,172.500372 L565.000065,172.501077 L563.641097,172.501915 L563.31051,172.502081 L559.000213,172.502667 L559.000406,170.502667 L562.982766,170.50223 C563.199429,170.502136 563.418534,170.502032 563.64008,170.501915 L564.998656,170.501077 L565.998655,170.500373 Z M549.001017,170.493667 L550.001016,170.494957 C551.772298,170.497242 553.438711,170.499027 555.000252,170.500312 L556.000251,170.501135 L555.998606,172.501134 L554.998606,172.500311 C553.436743,172.499026 551.77002,172.497241 549.998436,172.494955 L548.998437,172.493665 L549.001017,170.493667 Z M575.998705,170.487663 L576.001832,172.487661 L575.001834,172.489225 C573.247923,172.491968 571.581248,172.494294 570.001809,172.496205 L569.00181,172.497415 L568.99939,170.497417 L569.99939,170.496207 C571.578586,170.494296 573.245025,170.49197 574.998706,170.489227 L575.998705,170.487663 Z M539.00206,170.476729 L540.002058,170.478811 L540.248782,170.479324 C541.896088,170.482395 543.480172,170.485165 545.001034,170.487633 L546.001033,170.489256 L545.997787,172.489253 L544.997789,172.48763 C543.476762,172.485162 541.892517,172.482392 540.244837,172.47932 L539.997895,172.478806 L538.997897,172.476725 L539.00206,170.476729 Z M585.998033,170.468986 L586.002111,172.468982 L585.002113,172.471021 C583.274,172.474544 581.607342,172.477774 580.002138,172.480711 L579.00214,172.482541 L578.998481,170.482544 L579.998479,170.480715 C581.603541,170.477778 583.27006,170.474548 584.998035,170.471025 L585.998033,170.468986 Z M592.99705,170.453649 L593.001586,172.453644 L592.001589,172.455912 L591.823923,172.456313 L591.527743,172.456982 C591.483975,172.457081 591.44268,172.457174 591.403369,172.457263 L591.121943,172.457896 L591.058302,172.458039 L590.736983,172.458757 C590.690901,172.458859 590.642559,172.458967 590.590798,172.459082 L590.229959,172.459883 L590.001415,172.46039 L589.001418,172.462599 L588.997001,170.462604 L589.996998,170.460395 C590.079679,170.460212 590.15547,170.460044 590.225528,170.459888 L590.586345,170.459087 L590.661562,170.45892 L590.991133,170.458184 C591.032801,170.458091 591.074523,170.457998 591.117457,170.457901 L591.398867,170.457268 L591.523234,170.456987 L591.819397,170.456319 C591.875004,170.456193 591.934059,170.45606 591.997052,170.455917 L592.99705,170.453649 Z" transform="translate(560.5, 171.4794) rotate(90) translate(-560.5, -171.4794)" fill="#32C5FF" fill-rule="nonzero"></path>
        <path id="Line" d="M336.648173,163.368303 L337.625065,165.113492 L336.752471,165.601938 L328.069,170.462 L331.002068,170.468404 L332.002066,170.470485 L331.997903,172.470481 L330.997906,172.468399 L328.065,172.462 L336.728,177.358761 L337.598554,177.850835 L336.614405,179.591942 L335.743852,179.099868 L323.757927,172.324905 L322.210277,171.450107 L323.761556,170.581758 L335.775579,163.85675 L336.648173,163.368303 Z M361.998655,170.500373 L362.000064,172.500372 L361.000065,172.501077 L359.641097,172.501915 L359.31051,172.502081 L355.000213,172.502667 L355.000406,170.502667 L358.982766,170.50223 C359.199429,170.502136 359.418534,170.502032 359.64008,170.501915 L360.998656,170.501077 L361.998655,170.500373 Z M345.001017,170.493667 L346.001016,170.494957 C347.772298,170.497242 349.438711,170.499027 351.000252,170.500312 L352.000251,170.501135 L351.998606,172.501134 L350.998606,172.500311 C349.436743,172.499026 347.77002,172.497241 345.998436,172.494955 L344.998437,172.493665 L345.001017,170.493667 Z M371.998705,170.487663 L372.001832,172.487661 L371.001834,172.489225 C369.247923,172.491968 367.581248,172.494294 366.001809,172.496205 L365.00181,172.497415 L364.99939,170.497417 L365.99939,170.496207 C367.578586,170.494296 369.245025,170.49197 370.998706,170.489227 L371.998705,170.487663 Z M335.00206,170.476729 L336.002058,170.478811 L336.248782,170.479324 C337.896088,170.482395 339.480172,170.485165 341.001034,170.487633 L342.001033,170.489256 L341.997787,172.489253 L340.997789,172.48763 C339.476762,172.485162 337.892517,172.482392 336.244837,172.47932 L335.997895,172.478806 L334.997897,172.476725 L335.00206,170.476729 Z M381.998033,170.468986 L382.002111,172.468982 L381.002113,172.471021 C379.274,172.474544 377.607342,172.477774 376.002138,172.480711 L375.00214,172.482541 L374.998481,170.482544 L375.998479,170.480715 C377.603541,170.477778 379.27006,170.474548 380.998035,170.471025 L381.998033,170.468986 Z M388.99705,170.453649 L389.001586,172.453644 L388.001589,172.455912 L387.823923,172.456313 L387.527743,172.456982 C387.483975,172.457081 387.44268,172.457174 387.403369,172.457263 L387.121943,172.457896 L387.058302,172.458039 L386.736983,172.458757 C386.690901,172.458859 386.642559,172.458967 386.590798,172.459082 L386.229959,172.459883 L386.001415,172.46039 L385.001418,172.462599 L384.997001,170.462604 L385.996998,170.460395 C386.079679,170.460212 386.15547,170.460044 386.225528,170.459888 L386.586345,170.459087 L386.661562,170.45892 L386.991133,170.458184 C387.032801,170.458091 387.074523,170.457998 387.117457,170.457901 L387.398867,170.457268 L387.523234,170.456987 L387.819397,170.456319 C387.875004,170.456193 387.934059,170.45606 387.997052,170.455917 L388.99705,170.453649 Z" transform="translate(356.5, 171.4794) rotate(90) translate(-356.5, -171.4794)" fill="#E02020" fill-rule="nonzero"></path>
        <path id="Line" d="M183.764638,157.150366 L184.743895,158.894229 L183.871963,159.383857 L175.196,164.256 L178.128161,164.258112 L179.128161,164.258838 L179.126709,166.258838 L178.126709,166.258112 L175.195,166.256 L183.863427,171.140703 L184.734646,171.631597 L183.752858,173.374035 L182.881639,172.883141 L170.886543,166.12443 L169.337709,165.25173 L170.887809,164.38128 L182.892707,157.639994 L183.764638,157.150366 Z M269.126107,164.30063 L269.126107,166.30063 L262.125889,166.300281 L262.126085,164.300281 L269.126107,164.30063 Z M279.127985,164.299503 L279.128342,166.299503 L276.851387,166.299898 C276.428705,166.299965 276.008993,166.300028 275.59225,166.300086 L272.127429,166.300476 L272.127234,164.300476 L275.591973,164.300086 L276.429391,164.299964 L279.127985,164.299503 Z M254.402495,164.298916 L255.03348,164.29906 L259.128447,164.299861 L259.12809,166.299861 L255.66004,166.299197 L254.402033,166.298916 L252.128038,166.298363 L252.128534,164.298363 L254.402495,164.298916 Z M289.128434,164.29691 L289.129049,166.29691 L288.129049,166.297218 L285.600501,166.297959 L284.357973,166.298296 L282.129942,166.298858 L282.129446,164.298858 L284.357447,164.298296 C284.769197,164.298188 285.183363,164.298075 285.599945,164.297959 L288.128434,164.297218 L289.128434,164.29691 Z M244.395753,164.295995 C245.659147,164.296433 246.902631,164.296841 248.126205,164.297218 L249.126205,164.297525 L249.12559,166.297525 L248.12559,166.297217 C246.90199,166.296841 245.658479,166.296433 244.395059,166.295994 L242.125003,166.295185 L242.125723,164.295185 L244.395753,164.295995 Z M299.125719,164.293223 L299.126532,166.293223 L298.126532,166.293629 C296.851737,166.294147 295.5953,166.294636 294.357219,166.295096 L292.125257,166.295907 L292.124537,164.295907 L294.356476,164.295096 C295.594533,164.294636 296.850948,164.294147 298.12572,164.293629 L299.125719,164.293223 Z M233.129478,164.291493 C234.826494,164.292252 236.493256,164.292964 238.129764,164.293629 L239.129764,164.294035 L239.128952,166.294035 L238.128952,166.293629 C236.492416,166.292964 234.825626,166.292252 233.128583,166.291493 L232.128584,166.291045 L232.129479,164.291045 L233.129478,164.291493 Z M309.13072,164.288674 L309.131689,166.288673 L308.131689,166.289158 C306.436334,166.28998 304.769194,166.290757 303.130268,166.291491 L302.130268,166.291938 L302.129373,164.291939 L303.129373,164.291491 C304.768274,164.290758 306.435389,164.28998 308.13072,164.289158 L309.13072,164.288674 Z M223.126328,164.28665 C224.818969,164.287528 226.48521,164.288364 228.125053,164.289159 L229.125053,164.289643 L229.124083,166.289643 L228.124084,166.289159 C226.484218,166.288364 224.817954,166.287527 223.125291,166.28665 L222.125292,166.286132 L222.126328,164.286132 L223.126328,164.28665 Z M319.128539,164.283431 L319.129637,166.283431 L318.129637,166.28398 C316.437857,166.284909 314.770921,166.285799 313.128831,166.28665 L312.128831,166.287169 L312.127794,164.287169 L313.127794,164.286651 C314.769864,164.285799 316.436779,164.284909 318.128539,164.28398 L319.128539,164.283431 Z M212.130453,164.280588 L213.130453,164.281166 C214.820094,164.282141 216.486307,164.28308 218.129091,164.283982 L219.129091,164.284531 L219.127993,166.284531 L218.127993,166.283982 C216.48519,166.283079 214.818958,166.282141 213.129299,166.281165 L212.129299,166.280588 L212.130453,164.280588 Z M329.129197,164.277607 L329.130403,166.277607 L328.130403,166.27821 C326.441291,166.279229 324.774375,166.280214 323.129657,166.281163 L322.129658,166.28174 L322.128503,164.281741 L323.128503,164.281163 C324.773203,164.280214 326.440101,164.27923 328.129197,164.278211 L329.129197,164.277607 Z M202.125207,164.274506 L203.125207,164.275133 C204.813127,164.276192 206.479974,164.277218 208.125747,164.278211 L209.125747,164.278814 L209.12454,166.278814 L208.12454,166.27821 C206.478751,166.277218 204.811888,166.276192 203.123952,166.275133 L202.123952,166.274506 L202.125207,164.274506 Z M339.129544,164.271291 L339.130843,166.271291 L338.130843,166.27194 L337.946467,166.27206 L336.635035,166.272906 C336.5564,166.272957 336.480942,166.273005 336.408033,166.273052 L335.037466,166.273928 C334.969635,166.273971 334.899979,166.274016 334.827873,166.274061 L333.484389,166.27491 L333.130336,166.275133 L332.130337,166.275761 L332.129082,164.275761 L333.129082,164.275134 C333.253091,164.275056 333.370899,164.274981 333.483132,164.27491 L334.826603,164.274062 L334.933002,164.273994 L336.406749,164.273053 L336.518102,164.272981 L337.769777,164.272173 L338.129544,164.271941 L339.129544,164.271291 Z M192.126452,164.267971 L193.126452,164.268641 L193.598367,164.268956 C193.671913,164.269005 193.743029,164.269053 193.811901,164.269098 L195.060934,164.26993 C195.129375,164.269975 195.195891,164.27002 195.261109,164.270063 L196.654291,164.27098 L196.773195,164.271057 L198.128503,164.271943 L199.128503,164.272592 L199.127204,166.272592 L198.127204,166.271942 L196.895877,166.271138 C196.811416,166.271083 196.730658,166.27103 196.652979,166.270979 L195.259786,166.270062 L195.160906,166.269997 L193.810566,166.269098 L193.59703,166.268956 L193.125111,166.268641 L192.125112,166.267971 L192.126452,164.267971 Z M349.126877,164.264552 L349.128256,166.264552 L348.128257,166.265241 L347.148016,166.265914 L347.010589,166.266008 L345.614233,166.266963 L345.520428,166.267027 L344.093899,166.267991 L343.95183,166.268087 L343.127656,166.268642 L342.127656,166.269313 L342.126315,164.269313 L343.126315,164.268643 L343.801451,164.268188 C343.903231,164.268119 344.000056,164.268054 344.092551,164.267992 L345.424864,164.267092 C345.487904,164.267049 345.550366,164.267006 345.612873,164.266964 L346.877955,164.266099 C346.963513,164.26604 347.052868,164.265979 347.146644,164.265915 L348.126877,164.265242 L349.126877,164.264552 Z M183.377069,164.261923 L183.561091,164.262053 L184.855652,164.262964 L184.968839,164.263044 L186.245069,164.263936 L186.346419,164.264007 L187.777118,164.264999 L188.130996,164.265244 L189.130995,164.265934 L189.129616,166.265933 L188.129616,166.265243 C188.005347,166.265157 187.887617,166.265076 187.775736,166.264998 L186.449428,166.264079 C186.378693,166.26403 186.31034,166.263982 186.243675,166.263936 L185.076395,166.26312 C185.005044,166.26307 184.931224,166.263018 184.854241,166.262964 L183.734263,166.262175 L183.375636,166.261923 L182.126708,166.261016 L182.12816,164.261017 L183.377069,164.261923 Z M359.129443,164.257437 L359.130894,166.257437 L358.130894,166.258162 L357.151295,166.258869 C357.057577,166.258937 356.968277,166.259001 356.882769,166.259063 L355.618175,166.259973 L355.524374,166.26004 L354.362662,166.260869 C354.278163,166.260929 354.189956,166.260992 354.097415,166.261058 L353.130682,166.261745 L352.130682,166.262453 L352.129266,164.262453 L353.129266,164.261745 L354.095993,164.261058 L354.23163,164.260962 L355.428736,164.260108 C355.491779,164.260063 355.554239,164.260018 355.616741,164.259974 L356.881327,164.259064 L357.012511,164.258969 L358.129444,164.258162 L359.129443,164.257437 Z M365.125376,164.253012 L365.126864,166.253012 L363.829618,166.253977 L363.773655,166.254019 L363.12681,166.254499 L362.12681,166.25524 L362.125327,164.255241 L363.125327,164.254499 L363.720615,164.254058 C363.75384,164.254033 363.789027,164.254007 363.828131,164.253978 L365.125376,164.253012 Z" transform="translate(268.1274, 165.2772) rotate(23) translate(-268.1274, -165.2772)" fill="#E02020" fill-rule="nonzero"></path>
        <path id="Line" d="M362.764638,157.150366 L363.743895,158.894229 L362.871963,159.383857 L354.196,164.256 L357.128161,164.258112 L358.128161,164.258838 L358.126709,166.258838 L357.126709,166.258112 L354.195,166.256 L362.863427,171.140703 L363.734646,171.631597 L362.752858,173.374035 L361.881639,172.883141 L349.886543,166.12443 L348.337709,165.25173 L349.887809,164.38128 L361.892707,157.639994 L362.764638,157.150366 Z M448.126107,164.30063 L448.126107,166.30063 L441.125889,166.300281 L441.126085,164.300281 L448.126107,164.30063 Z M458.127985,164.299503 L458.128342,166.299503 L455.851387,166.299898 C455.428705,166.299965 455.008993,166.300028 454.59225,166.300086 L451.127429,166.300476 L451.127234,164.300476 L454.591973,164.300086 L455.429391,164.299964 L458.127985,164.299503 Z M433.402495,164.298916 L434.03348,164.29906 L438.128447,164.299861 L438.12809,166.299861 L434.66004,166.299197 L433.402033,166.298916 L431.128038,166.298363 L431.128534,164.298363 L433.402495,164.298916 Z M468.128434,164.29691 L468.129049,166.29691 L467.129049,166.297218 L464.600501,166.297959 L463.357973,166.298296 L461.129942,166.298858 L461.129446,164.298858 L463.357447,164.298296 C463.769197,164.298188 464.183363,164.298075 464.599945,164.297959 L467.128434,164.297218 L468.128434,164.29691 Z M423.395753,164.295995 C424.659147,164.296433 425.902631,164.296841 427.126205,164.297218 L428.126205,164.297525 L428.12559,166.297525 L427.12559,166.297217 C425.90199,166.296841 424.658479,166.296433 423.395059,166.295994 L421.125003,166.295185 L421.125723,164.295185 L423.395753,164.295995 Z M478.125719,164.293223 L478.126532,166.293223 L477.126532,166.293629 C475.851737,166.294147 474.5953,166.294636 473.357219,166.295096 L471.125257,166.295907 L471.124537,164.295907 L473.356476,164.295096 C474.594533,164.294636 475.850948,164.294147 477.12572,164.293629 L478.125719,164.293223 Z M412.129478,164.291493 C413.826494,164.292252 415.493256,164.292964 417.129764,164.293629 L418.129764,164.294035 L418.128952,166.294035 L417.128952,166.293629 C415.492416,166.292964 413.825626,166.292252 412.128583,166.291493 L411.128584,166.291045 L411.129479,164.291045 L412.129478,164.291493 Z M488.13072,164.288674 L488.131689,166.288673 L487.131689,166.289158 C485.436334,166.28998 483.769194,166.290757 482.130268,166.291491 L481.130268,166.291938 L481.129373,164.291939 L482.129373,164.291491 C483.768274,164.290758 485.435389,164.28998 487.13072,164.289158 L488.13072,164.288674 Z M402.126328,164.28665 C403.818969,164.287528 405.48521,164.288364 407.125053,164.289159 L408.125053,164.289643 L408.124083,166.289643 L407.124084,166.289159 C405.484218,166.288364 403.817954,166.287527 402.125291,166.28665 L401.125292,166.286132 L401.126328,164.286132 L402.126328,164.28665 Z M498.128539,164.283431 L498.129637,166.283431 L497.129637,166.28398 C495.437857,166.284909 493.770921,166.285799 492.128831,166.28665 L491.128831,166.287169 L491.127794,164.287169 L492.127794,164.286651 C493.769864,164.285799 495.436779,164.284909 497.128539,164.28398 L498.128539,164.283431 Z M391.130453,164.280588 L392.130453,164.281166 C393.820094,164.282141 395.486307,164.28308 397.129091,164.283982 L398.129091,164.284531 L398.127993,166.284531 L397.127993,166.283982 C395.48519,166.283079 393.818958,166.282141 392.129299,166.281165 L391.129299,166.280588 L391.130453,164.280588 Z M508.129197,164.277607 L508.130403,166.277607 L507.130403,166.27821 C505.441291,166.279229 503.774375,166.280214 502.129657,166.281163 L501.129658,166.28174 L501.128503,164.281741 L502.128503,164.281163 C503.773203,164.280214 505.440101,164.27923 507.129197,164.278211 L508.129197,164.277607 Z M381.125207,164.274506 L382.125207,164.275133 C383.813127,164.276192 385.479974,164.277218 387.125747,164.278211 L388.125747,164.278814 L388.12454,166.278814 L387.12454,166.27821 C385.478751,166.277218 383.811888,166.276192 382.123952,166.275133 L381.123952,166.274506 L381.125207,164.274506 Z M518.129544,164.271291 L518.130843,166.271291 L517.130843,166.27194 L516.946467,166.27206 L515.635035,166.272906 C515.5564,166.272957 515.480942,166.273005 515.408033,166.273052 L514.037466,166.273928 C513.969635,166.273971 513.899979,166.274016 513.827873,166.274061 L512.484389,166.27491 L512.130336,166.275133 L511.130337,166.275761 L511.129082,164.275761 L512.129082,164.275134 C512.253091,164.275056 512.370899,164.274981 512.483132,164.27491 L513.826603,164.274062 L513.933002,164.273994 L515.406749,164.273053 L515.518102,164.272981 L516.769777,164.272173 L517.129544,164.271941 L518.129544,164.271291 Z M371.126452,164.267971 L372.126452,164.268641 L372.598367,164.268956 C372.671913,164.269005 372.743029,164.269053 372.811901,164.269098 L374.060934,164.26993 C374.129375,164.269975 374.195891,164.27002 374.261109,164.270063 L375.654291,164.27098 L375.773195,164.271057 L377.128503,164.271943 L378.128503,164.272592 L378.127204,166.272592 L377.127204,166.271942 L375.895877,166.271138 C375.811416,166.271083 375.730658,166.27103 375.652979,166.270979 L374.259786,166.270062 L374.160906,166.269997 L372.810566,166.269098 L372.59703,166.268956 L372.125111,166.268641 L371.125112,166.267971 L371.126452,164.267971 Z M528.126877,164.264552 L528.128256,166.264552 L527.128257,166.265241 L526.148016,166.265914 L526.010589,166.266008 L524.614233,166.266963 L524.520428,166.267027 L523.093899,166.267991 L522.95183,166.268087 L522.127656,166.268642 L521.127656,166.269313 L521.126315,164.269313 L522.126315,164.268643 L522.801451,164.268188 C522.903231,164.268119 523.000056,164.268054 523.092551,164.267992 L524.424864,164.267092 C524.487904,164.267049 524.550366,164.267006 524.612873,164.266964 L525.877955,164.266099 C525.963513,164.26604 526.052868,164.265979 526.146644,164.265915 L527.126877,164.265242 L528.126877,164.264552 Z M362.377069,164.261923 L362.561091,164.262053 L363.855652,164.262964 L363.968839,164.263044 L365.245069,164.263936 L365.346419,164.264007 L366.777118,164.264999 L367.130996,164.265244 L368.130995,164.265934 L368.129616,166.265933 L367.129616,166.265243 C367.005347,166.265157 366.887617,166.265076 366.775736,166.264998 L365.449428,166.264079 C365.378693,166.26403 365.31034,166.263982 365.243675,166.263936 L364.076395,166.26312 C364.005044,166.26307 363.931224,166.263018 363.854241,166.262964 L362.734263,166.262175 L362.375636,166.261923 L361.126708,166.261016 L361.12816,164.261017 L362.377069,164.261923 Z M538.129443,164.257437 L538.130894,166.257437 L537.130894,166.258162 L536.151295,166.258869 C536.057577,166.258937 535.968277,166.259001 535.882769,166.259063 L534.618175,166.259973 L534.524374,166.26004 L533.362662,166.260869 C533.278163,166.260929 533.189956,166.260992 533.097415,166.261058 L532.130682,166.261745 L531.130682,166.262453 L531.129266,164.262453 L532.129266,164.261745 L533.095993,164.261058 L533.23163,164.260962 L534.428736,164.260108 C534.491779,164.260063 534.554239,164.260018 534.616741,164.259974 L535.881327,164.259064 L536.012511,164.258969 L537.129444,164.258162 L538.129443,164.257437 Z M544.125376,164.253012 L544.126864,166.253012 L542.829618,166.253977 L542.773655,166.254019 L542.12681,166.254499 L541.12681,166.25524 L541.125327,164.255241 L542.125327,164.254499 L542.720615,164.254058 C542.75384,164.254033 542.789027,164.254007 542.828131,164.253978 L544.125376,164.253012 Z" transform="translate(447.1274, 165.2772) scale(-1, 1) rotate(23) translate(-447.1274, -165.2772)" fill="#E02020" fill-rule="nonzero"></path>
        <path id="Line" d="M150.320486,150.092526 L151.299716,151.836403 L150.427778,152.326019 L141.751,157.198 L144.683902,157.200187 L145.683902,157.200929 L145.68242,159.200928 L144.68242,159.200187 L141.751,159.198 L150.419064,164.082864 L151.290276,164.573771 L150.308462,166.316195 L149.43725,165.825288 L137.442256,159.066397 L135.893435,158.193673 L137.443548,157.323246 L149.448547,150.582141 L150.320486,150.092526 Z M218.684269,157.240774 L219.684269,157.241004 L224.683967,157.241969 L225.683967,157.242123 L225.683659,159.242123 L224.683659,159.241969 L219.683809,159.241004 L218.683809,159.240774 L218.684269,157.240774 Z M235.681855,157.242529 L235.681941,159.242529 L228.682535,159.242455 L228.682662,157.242455 L235.681855,157.242529 Z M245.682884,157.241011 L245.683315,159.241011 L240.908673,159.241934 L239.685075,159.242114 L238.685075,159.242251 L238.6848,157.242251 L239.6848,157.242114 C240.089768,157.242059 240.497621,157.241998 240.908359,157.241934 L245.682884,157.241011 Z M255.681668,157.238069 L255.682351,159.238069 L253.41132,159.238836 L252.781119,159.23904 L249.683253,159.239975 L248.683253,159.240258 L248.682687,157.240258 L249.682687,157.239975 L252.153836,157.239238 L253.410666,157.238836 L255.681668,157.238069 Z M208.685182,157.237712 L209.685182,157.238064 L212.213325,157.23892 L213.456505,157.239314 L215.685758,157.239982 L215.685167,159.239982 L213.455886,159.239314 C213.043804,159.239186 212.629401,159.239055 212.212677,159.23892 L209.684478,159.238064 L208.684478,159.237712 L208.685182,157.237712 Z M198.683873,157.233605 L199.683873,157.234052 C201.381657,157.23481 203.047944,157.235517 204.682734,157.236175 L205.682734,157.236577 L205.68193,159.236577 L204.68193,159.236175 C203.04711,159.235517 201.380793,159.234809 199.68298,159.234051 L198.68298,159.233605 L198.683873,157.233605 Z M265.68278,157.234056 L265.683656,159.234055 L264.683656,159.234493 C263.409378,159.235052 262.153104,159.235581 260.914835,159.236082 L258.682568,159.236965 L258.681783,157.236966 L260.914027,157.236082 C262.152273,157.235581 263.408524,157.235052 264.68278,157.234494 L265.68278,157.234056 Z M188.684143,157.228673 L189.684143,157.229195 C191.378682,157.23008 193.045834,157.230921 194.6856,157.231719 L195.685599,157.232205 L195.684627,159.232205 L194.684627,159.231718 C193.044837,159.230921 191.377661,159.23008 189.683099,159.229195 L188.683099,159.228673 L188.684143,157.228673 Z M275.68449,157.229197 L275.68552,159.229197 L274.68552,159.229712 C272.991337,159.230585 271.324881,159.231414 269.68615,159.232199 L268.68615,159.232677 L268.685192,157.232678 L269.685192,157.232199 C271.323898,157.231414 272.990331,157.230586 274.68449,157.229713 L275.68449,157.229197 Z M179.683212,157.22365 C181.374475,157.224639 183.041535,157.22559 184.684392,157.226501 L185.684392,157.227056 L185.683282,159.227056 L184.683282,159.226501 C183.040405,159.225589 181.373325,159.224639 179.682043,159.22365 L178.682043,159.223065 L178.683212,157.223066 L179.683212,157.22365 Z M285.683205,157.223653 L285.684363,159.223653 L284.684363,159.224232 C282.992933,159.225211 281.325987,159.226151 279.683524,159.227052 L278.683524,159.227601 L278.682427,157.227601 L279.682427,157.227053 C281.32487,157.226152 282.991796,157.225212 284.683205,157.224232 L285.683205,157.223653 Z M168.686049,157.216897 L169.686049,157.217534 C171.37432,157.218611 173.040919,157.219652 174.685845,157.220659 L175.685845,157.221271 L175.684621,159.221271 L174.684621,159.220659 C173.039678,159.219652 171.373062,159.21861 169.684774,159.217534 L168.684774,159.216897 L168.686049,157.216897 Z M295.67972,157.217537 L295.680985,159.217537 L294.680985,159.218169 C292.992557,159.219237 291.326028,159.22027 289.681397,159.221268 L288.681398,159.221875 L288.680184,157.221875 L289.680184,157.221269 C291.324797,157.220271 292.991309,157.219238 294.67972,157.21817 L295.67972,157.217537 Z M305.684517,157.210927 L305.685874,159.210927 L304.685874,159.211605 L304.214096,159.211924 C304.140571,159.211973 304.069475,159.212021 304.000623,159.212068 L302.752005,159.212909 C302.683592,159.212955 302.617104,159.212999 302.551916,159.213043 L301.159612,159.21397 L301.0408,159.214048 L299.686595,159.214943 L298.686595,159.215599 L298.685282,157.215599 L299.685282,157.214943 L300.915583,157.214131 C300.999975,157.214075 301.080668,157.214022 301.158286,157.21397 L302.550577,157.213044 L302.649412,157.212977 L303.999272,157.212068 L304.212743,157.211924 L304.684517,157.211606 L305.684517,157.210927 Z M159.686568,157.210928 L159.870812,157.211054 L161.181319,157.211943 L161.296888,157.212021 L162.579415,157.212885 C162.64419,157.212929 162.710165,157.212973 162.777966,157.213018 L164.00995,157.213838 C164.14551,157.213929 164.289868,157.214024 164.444504,157.214127 L165.684352,157.214948 L165.683031,159.214947 L164.329106,159.214051 L164.164918,159.213942 L162.776627,159.213018 L162.676216,159.212951 L161.406817,159.212096 C161.333956,159.212047 161.258548,159.211996 161.179966,159.211943 L160.044718,159.211172 L159.685203,159.210928 L158.685203,159.210245 L158.686569,157.210246 L159.686568,157.210928 Z M149.683901,157.203893 L149.932787,157.204078 L151.169096,157.204965 L151.292175,157.205054 L152.602571,157.20599 L152.699264,157.206058 L154.009774,157.206985 L154.218356,157.207133 L154.681624,157.20746 L155.681624,157.208163 L155.680217,159.208163 L154.680218,159.207459 L154.216946,159.207132 C154.144993,159.207081 154.075534,159.207032 154.008363,159.206985 L152.796546,159.206128 C152.729957,159.206081 152.665055,159.206034 152.601147,159.205989 L151.408556,159.205138 C151.331646,159.205082 151.251576,159.205025 151.167653,159.204965 L149.931324,159.204077 L149.682419,159.203893 L148.682419,159.203151 L148.683901,157.203152 L149.683901,157.203893 Z M315.683664,157.203899 L315.6851,159.203898 L314.685101,159.204617 L314.213555,159.204954 C314.140067,159.205007 314.069006,159.205057 314.000187,159.205107 L312.752046,159.205998 L312.65081,159.20607 L311.383566,159.206967 L311.273435,159.207045 L310.039209,159.207913 L309.684898,159.208161 L308.684898,159.208861 L308.6835,157.208861 L309.6835,157.208162 C309.807599,157.208075 309.925493,157.207992 310.037808,157.207913 L311.157744,157.207126 C311.235419,157.207071 311.310014,157.207019 311.382155,157.206968 L312.550564,157.206141 C312.615747,157.206095 312.682226,157.206047 312.750624,157.205999 L313.998755,157.205107 L314.212122,157.204955 L314.683664,157.204617 L315.683664,157.203899 Z M325.684555,157.196499 L325.686062,159.196499 L324.686063,159.197252 L323.706575,159.197988 L323.569249,159.198091 L322.36184,159.198995 L322.26745,159.199065 L321.161094,159.199887 C321.083386,159.199945 321.002595,159.200004 320.918095,159.200067 L319.686094,159.200978 L318.686094,159.201715 L318.684621,157.201715 L319.684621,157.200979 L320.916613,157.200067 L321.040659,157.199976 L322.172101,157.199136 C322.2346,157.199089 322.297141,157.199043 322.360348,157.198995 L323.43658,157.19819 C323.522078,157.198126 323.611368,157.198059 323.705075,157.197988 L324.684556,157.197253 L325.684555,157.196499 Z" transform="translate(232.6832, 158.2192) rotate(151) translate(-232.6832, -158.2192)" fill="#EECC66" fill-rule="nonzero"></path>
        <path id="Line" d="M157.079475,147.567338 L158.059355,149.310851 L157.187599,149.80079 L148.512,154.676 L151.445539,154.677099 L152.445539,154.677467 L152.444802,156.677467 L151.444802,156.677098 L148.512,156.676 L157.183265,161.557639 L158.054659,162.048221 L157.073494,163.791011 L156.2021,163.300428 L144.204589,156.546005 L142.655443,155.673858 L144.205231,154.802854 L156.207719,148.057278 L157.079475,147.567338 Z M342.447324,154.721685 L342.447371,156.721685 L335.441466,156.721758 L335.441472,154.721758 L342.447324,154.721685 Z M352.448638,154.721176 L352.448775,156.721176 L345.448,156.721579 L345.447907,154.721579 L352.448638,154.721176 Z M332.445743,154.721711 L332.445687,156.721711 L325.445819,156.721432 L325.445922,154.721432 L332.445743,154.721711 Z M319.150994,154.720997 L319.246013,154.721005 L322.445789,154.721246 L322.445644,156.721246 L319.34219,156.721013 C319.27742,156.721008 319.213842,156.721002 319.150831,156.720997 L315.445613,156.720671 L315.445797,154.720671 L319.150994,154.720997 Z M309.14901,154.719999 L309.244045,154.72001 L312.445393,154.720369 L312.445174,156.720369 L309.340176,156.720021 C309.275386,156.720013 309.211794,156.720006 309.148775,156.719999 L305.445389,156.719543 L305.445641,154.719543 L309.14901,154.719999 Z M362.445413,154.720261 L362.445625,156.720261 L355.449012,156.720941 L355.448836,154.720941 L362.445413,154.720261 Z M301.444718,154.718999 L302.444718,154.719141 L302.444435,156.719141 L301.444435,156.718999 L295.44355,156.718099 L295.443862,154.718099 L301.444718,154.718999 Z M372.441154,154.719002 L372.441431,156.719002 L365.442136,156.719917 L365.44189,154.719917 L372.441154,154.719002 Z M382.448243,154.717442 L382.448577,156.717442 L379.12371,156.71799 L379.029332,156.718005 L375.449662,156.718562 L375.449355,154.718562 L378.93517,154.71802 C378.997656,154.71801 379.060188,154.718 379.123389,154.71799 L382.448243,154.717442 Z M288.961548,154.717013 L292.447788,154.717612 L292.447449,156.717611 L288.961197,156.717013 L288.867366,156.716997 L285.449046,156.716382 L285.44941,154.716382 L288.773355,154.71698 C288.836546,154.716991 288.899068,154.717002 288.961548,154.717013 Z M392.444308,154.715624 L392.444691,156.715624 L390.760196,156.715946 C390.657031,156.715965 390.558907,156.715984 390.465199,156.716001 L385.44484,156.716923 L385.444481,154.716923 L390.464821,154.716001 L390.608772,154.715974 L392.444308,154.715624 Z M278.379687,154.715018 L282.448503,154.715817 L282.448115,156.715817 L278.379285,156.715018 L278.275213,156.714997 L275.447555,156.714421 L275.447965,154.714421 L278.168202,154.714975 C278.241029,154.71499 278.311315,154.715004 278.379687,154.715018 Z M402.445817,154.713574 L402.446244,156.713574 L400.466644,156.713995 L400.329298,156.714024 L396.443428,156.71483 L395.443428,156.715033 L395.443022,154.715033 L396.443022,154.71483 L400.197685,154.714052 C400.283198,154.714034 400.372501,154.714015 400.466221,154.713995 L402.445817,154.713574 Z M268.766722,154.712988 L268.861088,154.713009 L272.443441,154.713789 L272.44301,156.713788 L268.954488,156.71303 C268.891997,156.713016 268.829469,156.713002 268.76628,156.712988 L265.443746,156.712244 L265.444197,154.712244 L268.766722,154.712988 Z M412.440587,154.711319 L412.441054,156.711319 L409.510749,156.711999 L409.4096,156.712023 L405.441451,156.712919 L405.441003,154.712919 L409.310391,154.712045 C409.37553,154.71203 409.441954,154.712015 409.51029,154.711999 L412.440587,154.711319 Z M255.446087,154.709875 L256.446087,154.710119 L259.9701,154.710968 C260.047893,154.710986 260.128776,154.711006 260.213376,154.711026 L262.446946,154.711553 L262.446475,156.711553 L260.212901,156.711026 L260.08871,156.710996 L256.445598,156.710119 L255.445598,156.709874 L255.446087,154.709875 Z M422.441154,154.708878 L422.441656,156.708878 L421.441656,156.709129 L418.144152,156.709947 C418.071943,156.709965 417.997268,156.709983 417.919503,156.710002 L415.443147,156.710605 L415.442662,154.710605 L417.919013,154.710002 L418.033421,154.709974 L421.441154,154.709129 L422.441154,154.708878 Z M247.936073,154.707978 L248.051468,154.708008 L251.444738,154.708876 L252.444738,154.709128 L252.444232,156.709128 L251.444233,156.708876 L248.162079,156.708036 C248.089312,156.708018 248.014013,156.707998 247.935556,156.707978 L245.443734,156.707329 L245.444257,154.70733 L247.936073,154.707978 Z M432.449424,154.706265 L432.449958,156.706265 L429.731436,156.70699 L429.624092,156.707018 L426.448368,156.70785 L425.448368,156.70811 L425.447849,154.70811 L426.447849,154.70785 L429.51955,154.707046 C429.587886,154.707028 429.65813,154.707009 429.730906,154.70699 L432.449424,154.706265 Z M236.804827,154.705001 L240.212386,154.705933 C240.297027,154.705956 240.385388,154.705979 240.478094,154.706004 L242.446636,154.706535 L242.446099,156.706535 L240.477554,156.706004 L240.341675,156.705968 L236.804275,156.705001 L236.445626,156.704903 L235.445626,156.704626 L235.446179,154.704626 L236.446179,154.704903 C236.571801,154.704937 236.691142,154.70497 236.804827,154.705001 Z M442.448916,154.703502 L442.44948,156.703502 L440.766362,156.703976 L440.615613,156.704018 L437.12691,156.70499 L436.916084,156.705048 L435.450233,156.705452 L435.449683,154.705452 L436.804804,154.705079 C436.917375,154.705048 437.024351,154.705018 437.126358,154.70499 L440.471378,154.704059 C440.564906,154.704033 440.662838,154.704005 440.7658,154.703976 L442.448916,154.703502 Z M225.443422,154.701776 L226.443422,154.702067 L229.53187,154.702957 C229.599848,154.702977 229.669673,154.702996 229.74197,154.703017 L232.445359,154.703786 L232.444792,156.703786 L229.741398,156.703017 L229.634728,156.702987 L226.442841,156.702067 L225.442841,156.701776 L225.443422,154.701776 Z M452.444627,154.700599 L452.445219,156.700599 L451.445219,156.700895 C451.319668,156.700932 451.200394,156.700967 451.086773,156.701 L447.680188,156.701999 L447.55034,156.702036 L445.445731,156.702646 L445.445153,154.702646 L447.41386,154.702076 C447.50658,154.702049 447.594954,154.702023 447.679607,154.701999 L451.086182,154.701 L451.444628,154.700895 L452.444627,154.700599 Z M215.44778,154.698794 L216.44778,154.699098 L219.333284,154.699968 C219.398122,154.699987 219.464182,154.700007 219.532087,154.700027 L222.443695,154.700895 L222.443101,156.700895 L219.531488,156.700027 L219.430936,156.699997 L216.447173,156.699098 L215.447173,156.698794 L215.44778,154.698794 Z M462.449896,154.697564 L462.450512,156.697563 L461.091973,156.697982 L460.925659,156.698033 L457.927503,156.69895 C457.849615,156.698974 457.768628,156.698998 457.683917,156.699024 L455.448581,156.699701 L455.447976,154.699701 L457.68331,154.699024 L457.807661,154.698986 L460.766742,154.698082 C460.904033,154.69804 461.050263,154.697995 461.206915,154.697947 L462.449896,154.697564 Z M205.443389,154.695686 L206.443389,154.696001 L209.528967,154.696969 L209.632356,154.697001 L212.441958,154.697873 L212.441339,156.697873 L209.738364,156.697034 C209.666092,156.697012 209.596294,156.69699 209.528344,156.696969 L206.442758,156.696001 L205.442758,156.695686 L205.443389,154.695686 Z M472.450502,154.69441 L472.451142,156.694409 L470.768299,156.694947 C470.665378,156.69498 470.567483,156.695011 470.473988,156.695041 L467.685738,156.695926 C467.601032,156.695953 467.512601,156.69598 467.41982,156.69601 L465.450457,156.69663 L465.449829,154.69663 L467.419189,154.69601 L467.555176,154.695967 L470.473351,154.695041 L470.616971,154.694995 L472.450502,154.69441 Z M197.132209,154.693015 L199.971035,154.693936 C200.048921,154.693961 200.129907,154.693987 200.21462,154.694014 L202.450004,154.694733 L202.449362,156.694733 L200.213975,156.694014 L200.089622,156.693974 L197.131557,156.693015 L196.918857,156.692946 L195.448811,156.692466 L195.449464,154.692466 L196.807787,154.69291 C196.92137,154.692947 197.029302,154.692982 197.132209,154.693015 Z M482.442977,154.691147 L482.443638,156.691147 L479.95419,156.691969 L479.838953,156.692007 L477.122139,156.692897 C476.986025,156.692941 476.841068,156.692988 476.685786,156.693039 L475.444935,156.693443 L475.444284,154.693443 L476.799683,154.693002 L476.96455,154.692948 L479.727311,154.692043 C479.799986,154.692019 479.875185,154.691995 479.953532,154.691969 L482.442977,154.691147 Z M187.932892,154.689974 L188.048061,154.690012 L190.763566,154.690919 C190.899625,154.690964 191.044523,154.691012 191.199741,154.691064 L192.440495,154.691476 L192.439831,156.691476 L191.084575,156.691026 L190.919775,156.690971 L188.158308,156.690049 C188.085676,156.690025 188.010521,156.69 187.932221,156.689973 L185.443686,156.689136 L185.44436,154.689136 L187.932892,154.689974 Z M492.441619,154.687778 L492.4423,156.687778 L491.4423,156.688119 L488.934921,156.688971 L488.841094,156.689002 L486.44146,156.689811 L485.44146,156.690147 L485.440788,154.690147 L486.440788,154.689812 L488.746157,154.689034 C488.809246,154.689013 488.871734,154.688992 488.934244,154.688971 L491.441619,154.688119 L492.441619,154.687778 Z M175.443644,154.685708 L176.443644,154.686055 L179.136603,154.686985 L179.231687,154.687018 L181.440175,154.687775 L182.440175,154.688117 L182.439491,156.688117 L181.439492,156.687775 L179.327454,156.687051 C179.262589,156.687028 179.198951,156.687006 179.135915,156.686985 L176.442951,156.686055 L175.442951,156.685708 L175.443644,154.685708 Z M502.451105,154.684309 L502.451806,156.684309 L500.769498,156.684898 C500.666656,156.684934 500.568836,156.684968 500.475412,156.685001 L497.688035,156.685971 L497.558078,156.686016 L495.452459,156.686745 L495.451767,154.686745 L497.421368,154.686063 C497.514169,154.686031 497.602619,154.686 497.687342,154.685971 L500.474713,154.685001 L500.618224,154.68495 L502.451105,154.684309 Z M167.692777,154.682986 L167.81793,154.68303 L170.479117,154.683971 L170.621708,154.684021 L172.449037,154.684663 L172.448334,156.684663 L170.770596,156.684073 C170.668431,156.684037 170.571245,156.684003 170.478412,156.68397 L167.937185,156.683073 C167.858834,156.683045 167.777337,156.683016 167.692068,156.682986 L165.447771,156.682188 L165.448482,154.682189 L167.692777,154.682986 Z M512.448368,154.680753 L512.449086,156.680753 L511.449086,156.681112 L509.130913,156.681942 C509.067746,156.681965 509.005225,156.681987 508.942726,156.68201 L506.449142,156.682897 L505.449142,156.683252 L505.448432,154.683252 L506.448432,154.682897 L508.942012,154.68201 L509.035855,154.681976 L511.448368,154.681112 L512.448368,154.680753 Z M156.445539,154.678942 L156.694989,154.679034 L159.172202,154.679933 C159.234924,154.679956 159.297971,154.679979 159.362038,154.680002 L161.450278,154.680755 L162.450278,154.681116 L162.449558,156.681115 L161.449558,156.680755 L159.361314,156.680002 L159.265891,156.679967 L156.694257,156.679034 L156.444802,156.678942 L155.444802,156.678573 L155.445539,154.678573 L156.445539,154.678942 Z M522.445859,154.677111 L522.446594,156.677111 L520.202711,156.677935 C520.117468,156.677966 520.035996,156.677996 519.95767,156.678025 L517.416732,156.678953 L517.274135,156.679005 L515.446772,156.67967 L515.446045,154.67967 L517.12381,154.679059 C517.225979,154.679022 517.323169,154.678987 517.416004,154.678953 L519.956937,154.678025 L520.076864,154.677981 L522.445859,154.677111 Z M529.444798,154.674514 L529.445544,156.674513 L528.215216,156.674972 L528.11351,156.67501 L526.448021,156.67563 L525.448021,156.676002 L525.447278,154.676002 L526.447278,154.67563 L528.018874,154.675045 L528.145755,154.674998 L529.444798,154.674514 Z" transform="translate(336.9452, 155.6983) rotate(165) translate(-336.9452, -155.6983)" fill="#EECC66" fill-rule="nonzero"></path>
        <circle id="Oval" fill="#F7B500" cx="152" cy="204" r="5"></circle>
        <circle id="Oval" fill="#E02020" cx="357" cy="203" r="5"></circle>
        <circle id="Oval" stroke="#32C5FF" fill="#32C5FF" cx="561" cy="203" r="4.5"></circle>
    </g>
</svg>