<?xml version="1.0" encoding="UTF-8"?>
<svg width="510px" height="139px" viewBox="0 0 510 139" version="1.1" xmlns="http://www.w3.org/2000/svg" xmlns:xlink="http://www.w3.org/1999/xlink">
    <title>Artboard</title>
    <g id="Artboard" stroke="none" stroke-width="1" fill="none" fill-rule="evenodd">
        <g id="Group" transform="translate(114, 33)">
            <circle id="Oval" stroke="#55565A" stroke-width="3" fill="#EECC66" cx="36" cy="36" r="34.5"></circle>
            <text id="1" font-family="Helvetica-Bold, Helvetica" font-size="28" font-weight="bold" fill="#FFFFFF">
                <tspan x="28.4277344" y="46">1</tspan>
            </text>
        </g>
        <g id="Group-2" transform="translate(318, 33)">
            <circle id="Oval" stroke="#55565A" stroke-width="3" fill="#CCDDAA" cx="36" cy="36" r="34.5"></circle>
            <text id="2" font-family="Helvetica-Bold, Helvetica" font-size="28" font-weight="bold" fill="#FFFFFF">
                <tspan x="28.4277344" y="46">2</tspan>
            </text>
        </g>
        <path id="Line" d="M299.868686,38.3881632 L300.740261,38.8784245 L312.740261,45.6284245 L314.289729,46.5 L312.740261,47.3715755 L300.740261,54.1215755 L299.868686,54.6118368 L298.888163,52.8686857 L299.759739,52.3784245 L308.431,47.5 L190.5,47.5 L190.5,45.5 L308.434,45.5 L299.759739,40.6215755 L298.888163,40.1313143 L299.868686,38.3881632 Z" fill="#000000" fill-rule="nonzero"></path>
        <path id="Line" d="M203.140578,76.4014625 L204.119108,78.1457331 L203.246972,78.6349979 L194.567,83.503 L202.749399,83.5128568 C214.930644,83.5261513 225.555364,83.5355491 234.623542,83.5410503 L236.207651,83.5419806 C236.991626,83.5424255 237.763483,83.5428402 238.523222,83.5432244 L240.026541,83.5439525 L240.397321,83.5441219 L242.220928,83.544893 L242.57959,83.545032 L245.033671,83.5458638 C245.26268,83.5459312 245.490343,83.5459952 245.716659,83.5460559 L257.032861,83.5461218 C257.248925,83.546066 257.466227,83.5460071 257.684767,83.5459451 L260.36668,83.5450525 L260.710277,83.54492 L262.456117,83.5441877 C262.691991,83.5440823 262.929103,83.5439738 263.167454,83.5438623 L264.612413,83.5431556 C265.342321,83.5427836 266.083373,83.5423838 266.835568,83.541956 L268.354815,83.5410634 C280.116283,83.5339345 294.497626,83.5202469 311.498809,83.5000007 L312.498808,83.4988098 L312.50119,85.4988084 L311.501191,85.4999993 C294.499537,85.520246 280.117731,85.533934 268.355738,85.5410632 L266.836422,85.5419559 C266.084192,85.5423836 265.343106,85.5427835 264.613162,85.5431554 L263.168132,85.5438622 L262.811517,85.5440272 L261.056301,85.5447827 C260.825367,85.5448757 260.595672,85.5449656 260.367215,85.5450524 L257.685154,85.5459451 L257.358253,85.5460358 L245.716276,85.5460559 L245.375771,85.5459623 L242.935685,85.5451659 C242.698583,85.5450783 242.460135,85.5449873 242.22034,85.5448929 L240.765415,85.5442861 C240.520235,85.5441783 240.273708,85.544067 240.025834,85.5439524 L238.522437,85.5432243 C237.762659,85.54284 236.990763,85.5424254 236.206749,85.5419804 L234.622564,85.54105 C225.553953,85.5355487 214.92883,85.5261505 202.747165,85.5128556 L194.566,85.503 L203.233535,90.3918391 L204.104549,90.8830962 L203.122035,92.6251254 L202.251021,92.1338684 L190.258743,85.3701574 L188.710273,84.4968115 L190.260736,83.6270075 L202.268443,76.8907272 L203.140578,76.4014625 Z" fill="#000000" fill-rule="nonzero"></path>
        <path id="Line-2" d="M407.75396,52.3784245 L408.625535,52.8686857 L407.645013,54.6118368 L406.773437,54.1215755 L394.773437,47.3715755 L393.22397,46.5 L394.773437,45.6284245 L406.773437,38.8784245 L407.645013,38.3881632 L408.625535,40.1313143 L407.75396,40.6215755 L399.08,45.5 L444.803724,45.5 L444.803724,85.546875 L395.5,85.546875 L395.5,83.546875 L442.803,83.546 L442.803,47.5 L399.08,47.5 L407.75396,52.3784245 Z" fill="#000000" fill-rule="nonzero"></path>
        <path id="Line-2" d="M70.7539599,51.3784245 L71.6255354,51.8686857 L70.6450129,53.6118368 L69.7734374,53.1215755 L57.7734374,46.3715755 L56.2239698,45.5 L57.7734374,44.6284245 L69.7734374,37.8784245 L70.6450129,37.3881632 L71.6255354,39.1313143 L70.7539599,39.6215755 L62.08,44.5 L107.803724,44.5 L107.803724,84.546875 L58.5,84.546875 L58.5,82.546875 L105.803,82.546 L105.803,46.5 L62.08,46.5 L70.7539599,51.3784245 Z" transform="translate(82.9087, 64.5234) scale(-1, -1) translate(-82.9087, -64.5234)" fill="#000000" fill-rule="nonzero"></path>
        <text id="p12" font-family="Helvetica" font-size="20" font-weight="normal" fill="#090909">
            <tspan x="228.630859" y="19">p</tspan>
            <tspan x="239.753906" y="19">12</tspan>
        </text>
        <text id="p21" font-family="Helvetica" font-size="20" font-weight="normal" fill="#090909">
            <tspan x="228.630859" y="117">p</tspan>
            <tspan x="239.753906" y="117">21</tspan>
        </text>
        <text id="p22" font-family="Helvetica" font-size="20" font-weight="normal" fill="#090909">
            <tspan x="462.630859" y="67">p</tspan>
            <tspan x="473.753906" y="67">22</tspan>
        </text>
        <text id="p11" font-family="Helvetica" font-size="20" font-weight="normal" fill="#090909">
            <tspan x="9.10546875" y="67">p</tspan>
            <tspan x="20.2285156" y="67">11</tspan>
        </text>
    </g>
</svg>