<?xml version="1.0" encoding="UTF-8"?>
<svg width="621px" height="295px" viewBox="0 0 621 295" version="1.1" xmlns="http://www.w3.org/2000/svg" xmlns:xlink="http://www.w3.org/1999/xlink">
    <title>Artboard</title>
    <g id="Artboard" stroke="none" stroke-width="1" fill="none" fill-rule="evenodd">
        <circle id="Oval" stroke="#979797" fill="#D8D8D8" cx="180" cy="127" r="31.5"></circle>
        <circle id="Oval" stroke="#979797" fill="#D8D8D8" cx="326" cy="127" r="31.5"></circle>
        <circle id="Oval" stroke="#979797" fill="#D8D8D8" cx="471" cy="127" r="31.5"></circle>
        <path id="Line" d="M282.087201,109.595377 L290.966825,120.117486 L292.113382,121.476125 L290.356897,121.750448 L276.753628,123.874966 L276.445015,121.898919 L286.276,120.363 L278.718515,117.540147 C268.009047,113.843287 259.593065,112 253.5,112 C245.545033,112 233.651001,115.138703 217.87027,121.428924 L217.12973,119.571076 C233.126777,113.19463 245.232745,110 253.5,110 C259.856208,110 268.470103,111.886634 279.394716,115.658094 L286.976,118.49 L280.558732,110.885254 L282.087201,109.595377 Z" fill="#000000" fill-rule="nonzero"></path>
        <path id="Line" d="M426.483228,108.80296 L427.125483,109.569451 L435.968157,120.122632 L437.109943,121.485283 L435.352507,121.753445 L421.741872,123.830251 L420.753314,123.981092 L420.451632,122.003976 L421.44019,121.853135 L431.277,120.352 L423.731587,117.503312 C413.162509,113.830974 404.743405,112 398.5,112 C390.323203,112 378.432488,115.137828 362.874789,121.42711 L361.947679,121.801899 L361.198101,119.947679 L362.125211,119.57289 C377.900845,113.195506 390.01013,110 398.5,110 C405.005529,110 413.626291,111.874831 424.412982,115.623153 L431.983,118.481 L425.592501,110.853961 L424.950246,110.08747 L426.483228,108.80296 Z" fill="#000000" fill-rule="nonzero"></path>
        <path id="Line" d="M376.360515,136.590095 L376.597172,138.576044 L366.717,139.754 L374.158426,142.845931 C384.858816,146.952882 393.316489,149 399.5,149 C407.550237,149 419.433807,145.533959 435.094459,138.585923 L435.905541,140.414077 C420.010637,147.466041 407.894207,151 399.5,151 C393.026351,151 384.350756,148.900136 373.416414,144.702991 L365.948,141.6 L372.086249,149.433072 L370.511952,150.666599 L362.020253,139.829 C361.539303,139.215184 361.914755,138.311534 362.689073,138.219262 L376.360515,136.590095 Z" fill="#000000" fill-rule="nonzero"></path>
        <path id="Line" d="M231.347733,136.445551 L231.588148,138.431048 L230.5954,138.551256 L220.717,139.747 L228.165456,142.826025 C238.936467,146.946215 247.392506,149 253.5,149 C261.43933,149 273.324713,145.53343 289.096833,138.584874 L290.011959,138.181706 L290.818294,140.011959 L289.903167,140.415126 C273.89751,147.46657 261.782892,151 253.5,151 C247.101818,151 238.429975,148.893801 227.426242,144.684212 L219.953,141.596 L226.105035,149.416803 L226.723286,150.202783 L225.151326,151.439287 L224.533074,150.653307 L216.020878,139.8318 L214.921764,138.434502 L216.686651,138.220799 L230.354984,136.565759 L231.347733,136.445551 Z" fill="#000000" fill-rule="nonzero"></path>
        <path id="Line-2" d="M181.5,168.5 L181.5,236.432 L186.378424,227.759739 L186.868686,226.888163 L188.611837,227.868686 L188.121576,228.740261 L181.371576,240.740261 L180.5,242.289729 L179.628424,240.740261 L172.878424,228.740261 L172.388163,227.868686 L174.131314,226.888163 L174.621576,227.759739 L179.5,236.432 L179.5,168.5 L181.5,168.5 Z" fill="#000000" fill-rule="nonzero"></path>
        <path id="Line-2" d="M327.5,168.5 L327.5,236.432 L332.378424,227.759739 L332.868686,226.888163 L334.611837,227.868686 L334.121576,228.740261 L327.371576,240.740261 L326.5,242.289729 L325.628424,240.740261 L318.878424,228.740261 L318.388163,227.868686 L320.131314,226.888163 L320.621576,227.759739 L325.5,236.432 L325.5,168.5 L327.5,168.5 Z" fill="#000000" fill-rule="nonzero"></path>
        <path id="Line-2" d="M472.5,168.5 L472.5,236.432 L477.378424,227.759739 L477.868686,226.888163 L479.611837,227.868686 L479.121576,228.740261 L472.371576,240.740261 L471.5,242.289729 L470.628424,240.740261 L463.878424,228.740261 L463.388163,227.868686 L465.131314,226.888163 L465.621576,227.759739 L470.5,236.432 L470.5,168.5 L472.5,168.5 Z" fill="#000000" fill-rule="nonzero"></path>
        <path id="Line-3" d="M337.378347,42.1729686 L338.601204,43.4633613 L348.071742,53.4569305 L346.62005,54.8326453 L339.774,47.61 L341.772868,55.5637264 C346.924604,80.1987786 341.433021,92.9217584 325.189281,92.9217584 C306.627808,92.9217584 302.66253,76.3557968 312.884453,44.1938003 L314.7905,44.7995919 C304.915191,75.8710118 308.517783,90.9217584 325.189281,90.9217584 C339.832509,90.9217584 344.7441,79.542513 339.824182,56.0120862 L337.835,48.097 L335.21756,57.6973845 L333.288029,57.1711616 L336.910593,43.8881072 L337.378347,42.1729686 Z" transform="translate(325.5085, 68.2092) scale(-1, -1) rotate(-2) translate(-325.5085, -68.2092)" fill="#000000" fill-rule="nonzero"></path>
        <path id="Line-3" d="M542.015711,101.676273 L543.238569,102.966665 L552.709106,112.960234 L551.257414,114.335949 L544.412,107.114 L546.410232,115.06703 C551.561968,139.702083 546.070385,152.425062 529.826645,152.425062 C511.265172,152.425062 507.299894,135.859101 517.521817,103.697104 L519.427864,104.302896 C509.552555,135.374316 513.155147,150.425062 529.826645,150.425062 C544.469873,150.425062 549.381464,139.045817 544.461547,115.51539 L542.472,107.6 L539.854925,117.200688 L537.925394,116.674465 L541.547957,103.391411 L542.015711,101.676273 Z" transform="translate(530.1459, 127.7125) scale(-1, -1) rotate(89) translate(-530.1459, -127.7125)" fill="#000000" fill-rule="nonzero"></path>
        <path id="Line-3" d="M130.015711,101.676273 L131.238569,102.966665 L140.709106,112.960234 L139.257414,114.335949 L132.412,107.114 L134.410232,115.06703 C139.561968,139.702083 134.070385,152.425062 117.826645,152.425062 C99.2651723,152.425062 95.2998943,135.859101 105.521817,103.697104 L107.427864,104.302896 C97.5525554,135.374316 101.155147,150.425062 117.826645,150.425062 C132.469873,150.425062 137.381464,139.045817 132.461547,115.51539 L130.472,107.6 L127.854925,117.200688 L125.925394,116.674465 L129.547957,103.391411 L130.015711,101.676273 Z" transform="translate(118.1459, 127.7125) scale(1, -1) rotate(89) translate(-118.1459, -127.7125)" fill="#000000" fill-rule="nonzero"></path>
        <text id="S1" font-family="Helvetica" font-size="22" font-weight="normal" fill="#000000">
            <tspan x="167.04541" y="135">S1</tspan>
        </text>
        <text id="S2" font-family="Helvetica" font-size="22" font-weight="normal" fill="#000000">
            <tspan x="313.04541" y="135">S2</tspan>
        </text>
        <text id="S3" font-family="Helvetica" font-size="22" font-weight="normal" fill="#000000">
            <tspan x="458.04541" y="135">S3</tspan>
        </text>
        <text id="p12" font-family="Helvetica-Light, Helvetica" font-size="16" font-weight="300" fill="#525252">
            <tspan x="239.716" y="93">p</tspan>
            <tspan x="249.492" y="93">12</tspan>
        </text>
        <text id="p23" font-family="Helvetica-Light, Helvetica" font-size="16" font-weight="300" fill="#525252">
            <tspan x="384.716" y="93">p</tspan>
            <tspan x="394.492" y="93">23</tspan>
        </text>
        <text id="1---p23---p21" font-family="Helvetica-Light, Helvetica" font-size="16" font-weight="300" fill="#525252">
            <tspan x="275.26" y="26">1 - p</tspan>
            <tspan x="308.156" y="26">23</tspan>
            <tspan x="325.948" y="26"> - p</tspan>
            <tspan x="349.948" y="26">21</tspan>
        </text>
        <text id="1---p32" font-family="Helvetica-Light, Helvetica" font-size="16" font-weight="300" fill="#525252">
            <tspan x="560.156" y="130">1 - p</tspan>
            <tspan x="593.052" y="130">32</tspan>
            <tspan x="610.844" y="130"> </tspan>
        </text>
        <text id="1---p12" font-family="Helvetica-Light, Helvetica" font-size="16" font-weight="300" fill="#525252">
            <tspan x="35.156" y="130">1 - p</tspan>
            <tspan x="68.052" y="130">12</tspan>
            <tspan x="85.844" y="130"> </tspan>
        </text>
        <text id="p32" font-family="Helvetica-Light, Helvetica" font-size="16" font-weight="300" fill="#525252">
            <tspan x="384.716" y="177">p</tspan>
            <tspan x="394.492" y="177">32</tspan>
        </text>
        <text id="p21" font-family="Helvetica-Light, Helvetica" font-size="16" font-weight="300" fill="#525252">
            <tspan x="239.716" y="174">p</tspan>
            <tspan x="249.492" y="174">21</tspan>
        </text>
        <text id="a1" font-family="Helvetica" font-size="16" font-weight="normal" fill="#FA6400">
            <tspan x="172.101562" y="265">a</tspan>
            <tspan x="181" y="265">1</tspan>
        </text>
        <text id="a2" font-family="Helvetica" font-size="16" font-weight="normal" fill="#FA6400">
            <tspan x="318.101562" y="265">a</tspan>
            <tspan x="327" y="265">2</tspan>
        </text>
        <text id="a3" font-family="Helvetica" font-size="16" font-weight="normal" fill="#FA6400">
            <tspan x="463.101562" y="265">a</tspan>
            <tspan x="472" y="265">3</tspan>
        </text>
        <text id="Outputs-(visible)" font-family="Helvetica" font-size="18" font-weight="normal" fill="#FA6400">
            <tspan x="12.4785156" y="270">Outputs (visible)</tspan>
        </text>
        <text id="States-(hidden)" font-family="Helvetica" font-size="18" font-weight="normal" fill="#020202">
            <tspan x="12.4643555" y="71">States (hidden)</tspan>
        </text>
    </g>
</svg>