<?xml version="1.0" encoding="UTF-8"?>
<svg width="506px" height="282px" viewBox="0 0 506 282" version="1.1" xmlns="http://www.w3.org/2000/svg" xmlns:xlink="http://www.w3.org/1999/xlink">
    <title>Artboard</title>
    <g id="Artboard" stroke="none" stroke-width="1" fill="none" fill-rule="evenodd">
        <g id="Group" transform="translate(117, 168)">
            <circle id="Oval" stroke="#55565A" stroke-width="3" fill="#EECC66" cx="36" cy="36" r="34.5"></circle>
            <text id="1" font-family="Helvetica-Bold, Helvetica" font-size="28" font-weight="bold" fill="#FFFFFF">
                <tspan x="28.4277344" y="46">1</tspan>
            </text>
        </g>
        <g id="Group" transform="translate(117, 15)">
            <circle id="Oval" stroke="#88CCE2" stroke-width="3" cx="36" cy="36" r="34.5"></circle>
            <text id="1" font-family="Helvetica-Bold, Helvetica" font-size="28" font-weight="bold" fill="#88CCE2">
                <tspan x="28.4277344" y="46">1</tspan>
            </text>
        </g>
        <g id="Group-2" transform="translate(321, 168)">
            <circle id="Oval" stroke="#55565A" stroke-width="3" fill="#CCDDAA" cx="36" cy="36" r="34.5"></circle>
            <text id="2" font-family="Helvetica-Bold, Helvetica" font-size="28" font-weight="bold" fill="#FFFFFF">
                <tspan x="28.4277344" y="46">2</tspan>
            </text>
        </g>
        <g id="Group-2" transform="translate(321, 14)">
            <circle id="Oval" stroke="#6EB43F" stroke-width="3" cx="36" cy="36" r="34.5"></circle>
            <text id="3" font-family="Helvetica-Bold, Helvetica" font-size="28" font-weight="bold" fill="#6EB43F">
                <tspan x="28.4277344" y="46">3</tspan>
            </text>
        </g>
        <g id="Group-2" transform="translate(219, 15)">
            <circle id="Oval" stroke="#ED4036" stroke-width="3" cx="36" cy="36" r="34.5"></circle>
            <text id="2" font-family="Helvetica-Bold, Helvetica" font-size="28" font-weight="bold" fill="#ED4036">
                <tspan x="28.4277344" y="46">2</tspan>
            </text>
        </g>
        <path id="Line" d="M302.868686,173.388163 L303.740261,173.878424 L315.740261,180.628424 L317.289729,181.5 L315.740261,182.371576 L303.740261,189.121576 L302.868686,189.611837 L301.888163,187.868686 L302.759739,187.378424 L311.432,182.5 L193.5,182.5 L193.5,180.5 L311.432,180.5 L302.759739,175.621576 L301.888163,175.131314 L302.868686,173.388163 Z" fill="#000000" fill-rule="nonzero"></path>
        <path id="Line" d="M206.140578,211.401462 L207.119108,213.145733 L206.246972,213.634998 L197.567,218.503 L205.749399,218.512857 C217.930644,218.526151 228.555364,218.535549 237.623542,218.54105 L239.207651,218.541981 C239.991626,218.542426 240.763483,218.54284 241.523222,218.543224 L243.026541,218.543953 L243.397321,218.544122 L245.220928,218.544893 L245.57959,218.545032 L248.033671,218.545864 C248.26268,218.545931 248.490343,218.545995 248.716659,218.546056 L260.032861,218.546122 C260.248925,218.546066 260.466227,218.546007 260.684767,218.545945 L263.36668,218.545052 L263.710277,218.54492 L265.456117,218.544188 C265.691991,218.544082 265.929103,218.543974 266.167454,218.543862 L267.612413,218.543156 C268.342321,218.542784 269.083373,218.542384 269.835568,218.541956 L271.354815,218.541063 C283.116283,218.533934 297.497626,218.520247 314.498809,218.500001 L315.498808,218.49881 L315.50119,220.498808 L314.501191,220.499999 C297.499537,220.520246 283.117731,220.533934 271.355738,220.541063 L269.836422,220.541956 C269.084192,220.542384 268.343106,220.542783 267.613162,220.543155 L266.168132,220.543862 L265.811517,220.544027 L264.056301,220.544783 C263.825367,220.544876 263.595672,220.544966 263.367215,220.545052 L260.685154,220.545945 L260.358253,220.546036 L248.716276,220.546056 L248.375771,220.545962 L245.935685,220.545166 C245.698583,220.545078 245.460135,220.544987 245.22034,220.544893 L243.765415,220.544286 C243.520235,220.544178 243.273708,220.544067 243.025834,220.543952 L241.522437,220.543224 C240.762659,220.54284 239.990763,220.542425 239.206749,220.54198 L237.622564,220.54105 C228.553953,220.535549 217.92883,220.526151 205.747165,220.512856 L197.566,220.503 L206.233535,225.391839 L207.104549,225.883096 L206.122035,227.625125 L205.251021,227.133868 L193.258743,220.370157 L191.710273,219.496811 L193.260736,218.627007 L205.268443,211.890727 L206.140578,211.401462 Z" fill="#000000" fill-rule="nonzero"></path>
        <path id="Line" d="M337.648173,118.91239 L338.625065,120.657578 L337.752471,121.146024 L329.069,126.006 L333.002066,126.014572 L332.997903,128.014568 L329.066,128.006 L337.728,132.902848 L338.598554,133.394922 L337.614405,135.136029 L336.743852,134.643954 L324.757927,127.868992 L323.210277,126.994193 L324.761556,126.125845 L336.775579,119.400836 L337.648173,118.91239 Z M362.998655,126.044459 L363.000064,128.044459 L362.000065,128.045163 C361.537311,128.045489 361.084322,128.045769 360.641097,128.046002 L356.000213,128.046754 L356.000406,126.046754 L360.64008,126.046002 C361.083173,126.045769 361.536031,126.04549 361.998656,126.045164 L362.998655,126.044459 Z M346.001017,126.037754 L347.001016,126.039044 C348.772298,126.041329 350.438711,126.043114 352.000252,126.044399 L353.000251,126.045221 L352.998606,128.045221 L351.998606,128.044398 C350.436743,128.043113 348.77002,128.041327 346.998436,128.039042 L345.998437,128.037752 L346.001017,126.037754 Z M372.998705,126.03175 L373.001832,128.031748 L372.001834,128.033311 C370.247923,128.036054 368.581248,128.038381 367.001809,128.040292 L366.00181,128.041502 L365.99939,126.041503 L366.99939,126.040294 C368.578586,126.038383 370.245025,126.036056 371.998706,126.033314 L372.998705,126.03175 Z M336.00206,126.020816 L337.002058,126.022898 L337.248782,126.023411 C338.896088,126.026482 340.480172,126.029252 342.001034,126.03172 L343.001033,126.033343 L342.997787,128.03334 L341.997789,128.031717 C340.476762,128.029249 338.892517,128.026479 337.244837,128.023407 L336.997895,128.022893 L335.997897,128.020812 L336.00206,126.020816 Z M382.998033,126.013073 L383.002111,128.013069 L382.002113,128.015108 C380.274,128.018631 378.607342,128.021861 377.002138,128.024798 L376.00214,128.026628 L375.998481,126.026631 L376.998479,126.024801 C378.603541,126.021865 380.27006,126.018635 381.998035,126.015112 L382.998033,126.013073 Z M389.99705,125.997736 L390.001586,127.997731 L389.001589,127.999999 C388.8126,128.000426 388.659046,128.000773 388.527743,128.001069 L388.121943,128.001983 L388.058302,128.002126 L387.736983,128.002843 L387.66602,128.003001 L387.229959,128.00397 L387.001415,128.004477 L386.001418,128.006686 L385.997001,126.006691 L386.996998,126.004482 C387.079679,126.004298 387.15547,126.00413 387.225528,126.003975 L387.586345,126.003174 C387.638102,126.003059 387.686442,126.002951 387.732521,126.002848 L387.991133,126.002271 C388.032801,126.002178 388.074523,126.002084 388.117457,126.001988 L388.398867,126.001355 C388.451279,126.001236 388.507218,126.00111 388.567841,126.000973 L388.997052,126.000004 L389.99705,125.997736 Z" transform="translate(357.5, 127.0234) rotate(90) translate(-357.5, -127.0234)" fill="#CCDDAA" fill-rule="nonzero"></path>
        <path id="Line" d="M273.775046,115.555959 L274.753384,117.300337 L273.881196,117.789506 L265.201,122.656 L268.134829,122.660737 L269.134828,122.66199 L269.132323,124.661988 L268.132323,124.660735 L265.199,124.656 L273.86647,129.546346 L274.737431,130.037698 L273.754726,131.77962 L272.883765,131.288267 L260.892229,124.523243 L259.343854,123.649727 L260.894412,122.780093 L272.902857,116.045128 L273.775046,115.555959 Z M314.917538,122.700002 L318.132278,122.700024 L319.132278,122.699929 L319.132468,124.699929 L318.132468,124.700024 L314.917329,124.700002 L314.330142,124.699928 L312.132958,124.699511 L312.133373,122.699511 L314.03401,122.699884 C314.331371,122.699931 314.62588,122.69997 314.917538,122.700002 Z M329.132019,122.696058 L329.133113,124.696058 L328.133113,124.696605 C327.091055,124.697175 326.074316,124.697675 325.082898,124.698105 L323.133823,124.698873 L322.133823,124.699225 L322.133118,122.699225 L323.133118,122.698873 L325.082036,122.698105 C326.073376,122.697675 327.090037,122.697175 328.132019,122.696605 L329.132019,122.696058 Z M302.135208,122.694832 L303.135207,122.695444 C304.86774,122.696506 306.534367,122.697386 308.135088,122.698084 L309.135088,122.69852 L309.134216,124.69852 L308.134216,124.698083 C306.533375,124.697385 304.86663,124.696505 303.133982,124.695444 L302.133982,124.694831 L302.135208,122.694832 Z M339.131827,122.688816 L339.13348,124.688815 L338.13348,124.689641 C336.41413,124.691063 334.747363,124.692339 333.133179,124.693471 L332.133179,124.694172 L332.131777,122.694172 L333.131777,122.693471 C334.745876,122.69234 336.412559,122.691063 338.131827,122.689642 L339.131827,122.688816 Z M293.133301,122.687942 C294.850161,122.689438 296.516961,122.690795 298.133701,122.692014 L299.133701,122.692768 L299.132192,124.692768 L298.132193,124.692014 C296.515373,124.690794 294.848496,124.689437 293.131559,124.687942 L292.131559,124.687071 L292.133301,122.687071 L293.133301,122.687942 Z M349.133122,122.679327 L349.135165,124.679326 L348.135166,124.680347 C346.426355,124.682093 344.759527,124.683723 343.134682,124.685237 L342.134682,124.686169 L342.132818,122.686169 L343.132818,122.685238 C344.757603,122.683724 346.424372,122.682094 348.133123,122.680348 L349.133122,122.679327 Z M282.13603,122.677221 L283.136029,122.678275 C284.842717,122.680073 286.509068,122.681761 288.135082,122.683337 L289.135082,122.684306 L289.133143,124.684305 L288.133144,124.683336 C286.507072,124.68176 284.840665,124.680072 283.133922,124.678274 L282.133922,124.67722 L282.13603,122.677221 Z M359.131046,122.668209 L359.13338,124.668207 L358.133381,124.669374 C356.431597,124.671361 354.764754,124.67325 353.132853,124.675044 L352.132853,124.676143 L352.130655,122.676144 L353.130655,122.675045 C354.762511,122.673252 356.429308,122.671362 358.131047,122.669376 L359.131046,122.668209 Z M272.134825,122.665747 L273.134825,122.667 L273.382915,122.66731 C274.99799,122.669231 276.582455,122.671067 278.136311,122.672818 L279.13631,122.673946 L279.134055,124.673944 L278.134056,124.672817 C276.580159,124.671065 274.995653,124.669229 273.380473,124.667309 L273.13232,124.666998 L272.13232,124.665745 L272.134825,122.665747 Z M369.132487,122.655829 L369.135049,124.655828 L368.13505,124.657109 C366.438437,124.659283 364.771739,124.661374 363.134957,124.663383 L362.134958,124.664611 L362.132503,122.664612 L363.132503,122.663385 C364.769248,122.661376 366.43591,122.659285 368.132487,122.657111 L369.132487,122.655829 Z" transform="translate(316.6336, 123.6767) rotate(41) translate(-316.6336, -123.6767)" fill="#CCDDAA" fill-rule="nonzero"></path>
        <path id="Line" d="M182.671298,117.895047 L183.642948,119.643159 L182.768892,120.128984 L174.07,124.963 L177.00391,124.97817 L178.003897,124.983253 L177.993732,126.983227 L176.993745,126.978144 L174.062,126.963 L182.709137,131.885681 L183.578209,132.380366 L182.58884,134.118511 L181.719767,133.623826 L169.75423,126.812922 L168.209212,125.933482 L169.76309,125.069794 L181.797242,118.380872 L182.671298,117.895047 Z M260.997834,125.273341 L261.997834,125.274024 C262.685875,125.274494 263.365337,125.27487 264.036219,125.275152 L267.99728,125.275787 L267.99728,127.275787 L264.035394,127.275152 C263.36433,127.274869 262.684688,127.274493 261.996468,127.274023 L260.996468,127.27334 L260.997834,125.273341 Z M277.998379,125.267896 L278.000883,127.267894 L277.000884,127.269146 C275.286238,127.271293 273.619105,127.272919 271.999482,127.274025 L270.999483,127.274707 L270.998117,125.274708 L271.998117,125.274025 C273.617354,125.27292 275.284108,125.271294 276.99838,125.269148 L277.998379,125.267896 Z M251.000532,125.259913 L252.00053,125.261649 C253.709784,125.264616 255.376395,125.267116 257.000364,125.269149 L258.000363,125.270401 L257.99786,127.270399 L256.99786,127.269147 C255.373565,127.267114 253.706631,127.264613 251.997059,127.261646 L250.99706,127.25991 L251.000532,125.259913 Z M287.99343,125.249755 L287.997737,127.24975 L286.99774,127.251904 C285.292532,127.255576 283.625988,127.258825 281.998108,127.26165 L280.998109,127.263386 L280.994638,125.263389 L281.994636,125.261653 C283.622235,125.258829 285.2885,125.25558 286.993432,125.251909 L287.99343,125.249755 Z M241.002448,125.237682 L242.002445,125.240201 C243.704335,125.24449 245.370836,125.24839 247.001949,125.251903 L248.001947,125.254057 L247.997639,127.254052 L246.997641,127.251899 C245.366282,127.248385 243.699537,127.244484 241.997405,127.240195 L240.997409,127.237675 L241.002448,125.237682 Z M297.994746,125.223936 L298.000433,127.223928 L297.000437,127.226771 C295.30062,127.231604 293.633435,127.23608 291.998884,127.240199 L290.998888,127.242718 L290.993848,125.242725 L291.993845,125.240205 C293.628178,125.236087 295.295147,125.231612 296.99475,125.226779 L297.994746,125.223936 Z M231.001232,125.208688 L232.001227,125.211821 C233.698289,125.217137 235.365093,125.222122 237.00164,125.226775 L238.001636,125.229619 L237.995949,127.229611 L236.995953,127.226767 C235.359212,127.222113 233.692215,127.217128 231.994962,127.211811 L230.994966,127.208678 L231.001232,125.208688 Z M307.990729,125.192123 L307.997514,127.192111 L306.99752,127.195504 C305.303087,127.201253 303.636839,127.206692 301.998776,127.211823 L300.998781,127.214956 L300.992516,125.214966 L301.992511,125.211833 C303.6304,125.206703 305.296474,125.201263 306.990734,125.195515 L307.990729,125.192123 Z M221.003215,125.174311 L222.003208,125.177939 C223.695686,125.184081 225.361766,125.189933 227.001449,125.195496 L228.001444,125.198889 L227.994658,127.198878 L226.994664,127.195485 C225.354822,127.189921 223.688584,127.184068 221.995951,127.177926 L220.995958,127.174297 L221.003215,125.174311 Z M317.996705,125.155398 L318.004392,127.155383 L317.0044,127.159227 C315.312558,127.16573 313.645562,127.171962 312.003409,127.177921 L311.003416,127.181549 L310.996158,125.181562 L311.996152,125.177934 C313.63816,125.171975 315.305013,125.165745 316.996712,125.159242 L317.996705,125.155398 Z M211.001422,125.135483 L212.001414,125.139524 C213.691135,125.146352 215.357425,125.152924 217.000283,125.159239 L218.000276,125.163083 L217.992588,127.163068 L216.992595,127.159224 C215.349605,127.152909 213.683183,127.146336 211.993332,127.139508 L210.99334,127.135467 L211.001422,125.135483 Z M327.997036,125.114633 L328.005482,127.114615 L327.005491,127.118838 C325.316326,127.125971 323.649359,127.132861 322.004589,127.139507 L321.004597,127.143548 L320.996515,125.143565 L321.996507,125.139524 C323.641155,125.132877 325.308001,125.125988 326.997045,125.118856 L327.997036,125.114633 Z M201.001775,125.092931 L202.001765,125.097321 C203.689599,125.104732 205.35636,125.111912 207.002047,125.118861 L208.002038,125.123084 L207.993593,127.123066 L206.993602,127.118844 C205.347802,127.111894 203.680929,127.104713 201.992984,127.097302 L200.992993,127.092911 L201.001775,125.092931 Z M337.997104,125.070421 L338.006198,127.070401 L337.006208,127.074947 C335.31927,127.082618 333.65239,127.090068 332.005568,127.097299 L331.005578,127.10169 L330.996796,125.101709 L331.996787,125.097318 C333.643504,125.090088 335.31028,125.082638 336.997115,125.074968 L337.997104,125.070421 Z M191.002741,125.047184 L192.00273,125.051876 C193.689169,125.059789 195.356458,125.067492 197.004597,125.074986 L198.004587,125.079533 L197.995494,127.079512 L196.995504,127.074965 C195.347267,127.067471 193.679881,127.059767 191.993346,127.051854 L190.993357,127.047162 L191.002741,125.047184 Z M347.992942,125.023254 L348.002598,127.023231 L347.002609,127.028059 C345.317833,127.036193 343.651345,127.044127 342.003146,127.05186 L341.003157,127.056552 L340.993773,125.056574 L341.993762,125.051882 C343.64187,125.044149 345.308267,125.036216 346.992953,125.028082 L347.992942,125.023254 Z M181.003858,124.998501 L182.003846,125.003583 L182.246332,125.004816 C183.846935,125.012738 185.431677,125.020486 187.000559,125.028061 L188.000548,125.032889 L187.990891,127.032866 L186.990903,127.028038 C185.42194,127.020463 183.837116,127.012714 182.2363,127.004791 L181.99368,127.003557 L180.993693,126.998475 L181.003858,124.998501 Z M357.98914,124.973484 L357.999291,126.973458 L356.999304,126.978533 C355.315729,126.987078 353.648973,126.995438 351.999036,127.003614 L350.999048,127.00857 L350.989137,125.008594 L351.989125,125.003639 C353.638982,124.995463 355.305658,124.987103 356.989153,124.978559 L357.98914,124.973484 Z M363.99359,124.942466 L364.00401,126.942439 L363.004023,126.947648 C362.50274,126.950258 362.50274,126.950258 362.002725,126.952854 L361.002738,126.958043 L360.992362,124.958069 L361.992348,124.952881 C362.492342,124.950285 362.492342,124.950285 362.993603,124.947676 L363.99359,124.942466 Z" transform="translate(266.9989, 126.1117) scale(1, -1) rotate(-20) translate(-266.9989, -126.1117)" fill="#CCDDAA" fill-rule="nonzero"></path>
        <path id="Line" d="M133.648173,118.91239 L134.625065,120.657578 L133.752471,121.146024 L125.069,126.006 L129.002066,126.014572 L128.997903,128.014568 L125.066,128.006 L133.728,132.902848 L134.598554,133.394922 L133.614405,135.136029 L132.743852,134.643954 L120.757927,127.868992 L119.210277,126.994193 L120.761556,126.125845 L132.775579,119.400836 L133.648173,118.91239 Z M158.998655,126.044459 L159.000064,128.044459 L158.000065,128.045163 C157.537311,128.045489 157.084322,128.045769 156.641097,128.046002 L152.000213,128.046754 L152.000406,126.046754 L156.64008,126.046002 C157.083173,126.045769 157.536031,126.04549 157.998656,126.045164 L158.998655,126.044459 Z M142.001017,126.037754 L143.001016,126.039044 C144.772298,126.041329 146.438711,126.043114 148.000252,126.044399 L149.000251,126.045221 L148.998606,128.045221 L147.998606,128.044398 C146.436743,128.043113 144.77002,128.041327 142.998436,128.039042 L141.998437,128.037752 L142.001017,126.037754 Z M168.998705,126.03175 L169.001832,128.031748 L168.001834,128.033311 C166.247923,128.036054 164.581248,128.038381 163.001809,128.040292 L162.00181,128.041502 L161.99939,126.041503 L162.99939,126.040294 C164.578586,126.038383 166.245025,126.036056 167.998706,126.033314 L168.998705,126.03175 Z M132.00206,126.020816 L133.002058,126.022898 L133.248782,126.023411 C134.896088,126.026482 136.480172,126.029252 138.001034,126.03172 L139.001033,126.033343 L138.997787,128.03334 L137.997789,128.031717 C136.476762,128.029249 134.892517,128.026479 133.244837,128.023407 L132.997895,128.022893 L131.997897,128.020812 L132.00206,126.020816 Z M178.998033,126.013073 L179.002111,128.013069 L178.002113,128.015108 C176.274,128.018631 174.607342,128.021861 173.002138,128.024798 L172.00214,128.026628 L171.998481,126.026631 L172.998479,126.024801 C174.603541,126.021865 176.27006,126.018635 177.998035,126.015112 L178.998033,126.013073 Z M185.99705,125.997736 L186.001586,127.997731 L185.001589,127.999999 C184.8126,128.000426 184.659046,128.000773 184.527743,128.001069 L184.121943,128.001983 L184.058302,128.002126 L183.736983,128.002843 L183.66602,128.003001 L183.229959,128.00397 L183.001415,128.004477 L182.001418,128.006686 L181.997001,126.006691 L182.996998,126.004482 C183.079679,126.004298 183.15547,126.00413 183.225528,126.003975 L183.586345,126.003174 C183.638102,126.003059 183.686442,126.002951 183.732521,126.002848 L183.991133,126.002271 C184.032801,126.002178 184.074523,126.002084 184.117457,126.001988 L184.398867,126.001355 C184.451279,126.001236 184.507218,126.00111 184.567841,126.000973 L184.997052,126.000004 L185.99705,125.997736 Z" transform="translate(153.5, 127.0234) rotate(90) translate(-153.5, -127.0234)" fill="#EECC66" fill-rule="nonzero"></path>
        <path id="Line" d="M154.245635,114.470243 L155.223853,116.214688 L154.35163,116.703797 L145.67,121.57 L148.604927,121.574632 L149.604926,121.575953 L149.602283,123.575951 L148.602284,123.57463 L145.671,123.57 L154.336093,128.460636 L155.20702,128.952049 L154.224195,130.693902 L153.353268,130.20249 L141.362199,123.436637 L139.813884,122.563015 L141.364502,121.693488 L153.373412,114.959352 L154.245635,114.470243 Z M199.603979,121.612609 L199.604554,123.612609 L198.604554,123.612896 L198.133443,123.613025 L192.602743,123.61353 L192.602816,121.61353 L197.666537,121.613141 L198.603979,121.612896 L199.603979,121.612609 Z M182.603666,121.609729 L183.603666,121.610294 C184.997522,121.611081 186.342844,121.611727 187.639632,121.612231 L189.603122,121.612923 L189.602441,123.612922 L187.638859,123.612231 C186.341951,123.611727 184.99651,123.611081 183.602537,123.610294 L182.602537,123.609729 L182.603666,121.609729 Z M209.603507,121.607034 L209.604921,123.607034 L208.604921,123.607741 C206.872011,123.608967 205.205287,123.609999 203.60475,123.610839 L202.60475,123.611363 L202.603701,121.611363 L203.603701,121.610839 C205.204114,121.609999 206.870716,121.608967 208.603507,121.607741 L209.603507,121.607034 Z M173.604005,121.60296 C175.326133,121.604475 176.992685,121.605828 178.603662,121.607018 L179.603662,121.607757 L179.602184,123.607757 L178.602184,123.607018 C176.991112,123.605827 175.324466,123.604474 173.602246,123.60296 L172.602246,123.60208 L172.604006,121.602081 L173.604005,121.60296 Z M219.601812,121.598275 L219.60376,123.598274 L218.603761,123.599249 C216.88659,123.600922 215.219649,123.602448 213.60294,123.603828 L212.60294,123.604682 L212.601233,121.604682 L213.601233,121.603829 C215.21786,121.602449 216.88472,121.600922 218.601812,121.599249 L219.601812,121.598275 Z M162.603936,121.591936 L163.603935,121.59303 C165.314575,121.594902 166.98134,121.596647 168.604232,121.598263 L169.604232,121.599259 L169.60224,123.599258 L168.60224,123.598262 C166.979282,123.596646 165.31245,123.594901 163.601746,123.593029 L162.601747,123.591934 L162.603936,121.591936 Z M229.602244,121.58735 L229.604571,123.587348 L228.604571,123.588512 C226.897223,123.590498 225.23034,123.592366 223.603923,123.594116 L222.603924,123.595192 L222.601772,121.595193 L223.601771,121.594117 C225.228129,121.592367 226.894954,121.590499 228.602245,121.588513 L229.602244,121.58735 Z M152.604924,121.579918 L153.604923,121.581239 L153.852904,121.581567 C155.469874,121.583588 157.054039,121.585513 158.605398,121.587342 L159.605397,121.588522 L159.603039,123.58852 L158.603039,123.587341 C157.051633,123.585511 155.467421,123.583586 153.850332,123.581565 L153.60228,123.581237 L152.60228,123.579916 L152.604924,121.579918 Z M239.601093,121.574832 L239.603705,123.57483 L238.603706,123.576136 C236.903117,123.578357 235.236404,123.580479 233.603569,123.582503 L232.60357,123.583742 L232.601091,121.583743 L233.601091,121.582504 C235.233881,121.580481 236.900549,121.578359 238.601094,121.576138 L239.601093,121.574832 Z M246.601915,121.565315 L246.60469,123.565313 L245.604691,123.566701 C245.520956,123.566817 245.444199,123.566923 245.373263,123.567021 L244.727327,123.567914 L244.663736,123.568002 L244.028543,123.568873 L243.902223,123.569046 L243.604576,123.569454 L242.604577,123.570819 L242.601847,121.570821 L243.601846,121.569456 L243.899485,121.569048 C243.943863,121.568988 243.985854,121.56893 244.025803,121.568875 L244.59831,121.56809 C244.639978,121.568032 244.681679,121.567975 244.724571,121.567916 L245.370493,121.567023 L245.601916,121.566703 L246.601915,121.565315 Z" transform="translate(194.1036, 122.5901) rotate(139) translate(-194.1036, -122.5901)" fill="#EECC66" fill-rule="nonzero"></path>
        <path id="Line" d="M156.48495,115.173181 L157.464194,116.917051 L156.592259,117.406673 L147.916,122.278 L150.848421,122.280885 L151.84842,122.281619 L151.846953,124.281618 L150.846954,124.280885 L147.914,124.278 L156.583635,129.163519 L157.454851,129.654419 L156.47305,131.396851 L155.601834,130.90595 L143.606789,124.14715 L142.057961,123.274438 L143.608067,122.403999 L155.613015,115.662803 L156.48495,115.173181 Z M241.845723,122.323327 L241.845766,124.323327 L234.848161,124.323112 L234.848324,122.323112 L241.845723,122.323327 Z M251.849973,122.322004 L251.850368,124.322004 L245.848797,124.322994 L244.848797,124.323111 L244.848562,122.323111 L245.848562,122.322994 L251.849973,122.322004 Z M228.382253,122.322108 L231.84935,122.322733 L231.849016,124.322733 L228.381846,124.322108 L227.12358,124.32184 L224.848861,124.321307 L224.84934,122.321307 L227.124023,122.32184 C227.546175,122.321934 227.965585,122.322023 228.382253,122.322108 Z M261.846707,122.319238 L261.847356,124.319238 L259.575896,124.319966 C258.311604,124.320358 257.068817,124.320717 255.847535,124.321041 L254.847535,124.321306 L254.847004,122.321306 L255.847004,122.321041 C257.068256,122.320717 258.311014,122.320359 259.575276,122.319966 L261.846707,122.319238 Z M217.119443,122.318986 C218.382903,122.319419 219.625982,122.31982 220.848681,122.320189 L221.848681,122.320491 L221.848077,124.320491 L220.848077,124.320189 C219.625351,124.31982 218.382245,124.319419 217.118758,124.318985 L214.848477,124.318185 L214.84919,122.318185 L217.119443,122.318986 Z M271.850656,122.315387 L271.8515,124.315387 L270.8515,124.315809 C269.152204,124.316526 267.485222,124.317192 265.850552,124.317807 L264.850552,124.318183 L264.8498,122.318184 L265.8498,122.317807 C267.484438,122.317192 269.15139,122.316526 270.850656,122.315809 L271.850656,122.315387 Z M205.849903,122.314507 C207.54768,122.315266 209.21458,122.315977 210.850603,122.316638 L211.850603,122.317042 L211.849794,124.317042 L210.849794,124.316638 C209.213743,124.315976 207.546814,124.315266 205.849009,124.314507 L204.849009,124.31406 L204.849903,122.31406 L205.849903,122.314507 Z M281.849722,122.310687 L281.850722,124.310686 L280.850722,124.311186 C279.15586,124.312033 277.48897,124.312836 275.850052,124.313595 L274.850052,124.314058 L274.849126,122.314058 L275.849126,122.313595 C277.48802,122.312837 279.154885,122.312034 280.849722,122.311186 L281.849722,122.310687 Z M195.848699,122.309657 C197.542159,122.310539 199.208738,122.311377 200.848437,122.312173 L201.848437,122.312659 L201.847466,124.312659 L200.847466,124.312173 C199.207744,124.311377 197.541141,124.310538 195.847659,124.309657 L194.847659,124.309137 L194.848699,122.309137 L195.848699,122.309657 Z M291.847498,122.305295 L291.848625,124.305295 L290.848626,124.305859 C289.157243,124.306812 287.490516,124.307727 285.848446,124.308603 L284.848446,124.309136 L284.847379,122.309137 L285.847379,122.308603 C287.489429,122.307727 289.156135,122.306813 290.847498,122.305859 L291.847498,122.305295 Z M184.851013,122.303562 L185.851013,122.304143 C187.542047,122.305126 189.209255,122.30607 190.852636,122.306977 L191.852636,122.307529 L191.851532,124.307529 L190.851532,124.306977 C189.208132,124.30607 187.540905,124.305125 185.849851,124.304143 L184.849851,124.303562 L184.851013,122.303562 Z M301.850947,122.299323 L301.852182,124.299323 L300.852182,124.299941 C299.163205,124.300984 297.496279,124.301993 295.851405,124.302966 L294.851405,124.303558 L294.850221,122.303559 L295.850221,122.302967 C297.495078,122.301993 299.161987,122.300984 300.850947,122.299941 L301.850947,122.299323 Z M174.85107,122.297438 L175.85107,122.29807 C177.539523,122.299138 179.206597,122.300171 180.852292,122.301171 L181.852292,122.301779 L181.851077,124.301779 L180.851077,124.301171 C179.205365,124.300171 177.538274,124.299137 175.849805,124.29807 L174.849806,124.297437 L174.85107,122.297438 Z M311.850608,122.292863 L311.851936,124.292863 L310.851936,124.293527 L310.166505,124.293979 L310.015258,124.294079 L308.717433,124.294934 C308.652229,124.294977 308.588325,124.295019 308.525096,124.29506 L307.082103,124.295997 L306.952638,124.296081 L305.851587,124.296792 L304.851587,124.297433 L304.850304,122.297434 L305.850304,122.296792 L306.815862,122.296169 C306.908294,122.296109 306.996402,122.296052 307.080809,122.295998 L308.523788,122.29506 L308.619215,122.294998 L309.869797,122.294175 C309.963626,122.294113 310.06188,122.294048 310.165183,122.29398 L310.850608,122.293527 L311.850608,122.292863 Z M164.850384,122.290844 L165.850384,122.291521 L166.53572,122.291982 L166.686947,122.292083 L167.984659,122.292955 L168.081569,122.293019 L169.37744,122.293879 C169.455092,122.293931 169.535821,122.293984 169.620252,122.294039 L170.851132,122.294851 L171.851132,122.295506 L171.849822,124.295505 L170.849822,124.29485 L169.618931,124.294039 L169.494982,124.293957 L168.175666,124.293083 C168.112434,124.29304 168.048528,124.292998 167.983324,124.292954 L166.829725,124.29218 C166.735907,124.292117 166.637664,124.292051 166.534373,124.291981 L165.849031,124.29152 L164.849031,124.290844 L164.850384,122.290844 Z M321.844581,122.285984 L321.845988,124.285984 L320.845989,124.286687 C320.67812,124.286805 320.521443,124.286915 320.374475,124.287018 L319.12464,124.287893 C319.05178,124.287944 318.981467,124.287993 318.913073,124.288041 L317.544743,124.28899 L317.434627,124.289066 L316.200575,124.289915 L315.846316,124.290159 L314.846316,124.290844 L314.844947,122.290844 L315.844947,122.290159 C315.969028,122.290074 316.086905,122.289993 316.199203,122.289916 L317.31898,122.289145 C317.396644,122.289092 317.471229,122.28904 317.54336,122.28899 L318.91168,122.288041 L319.015788,122.287968 L320.159719,122.287168 C320.366159,122.287023 320.59278,122.286864 320.844581,122.286688 L321.844581,122.285984 Z M154.84842,122.28382 L155.848419,122.284553 L156.455579,122.28499 L156.621109,122.285108 L157.796332,122.285943 L157.901482,122.286018 L159.167875,122.28691 C159.23853,122.28696 159.311564,122.287011 159.387669,122.287065 L160.492663,122.287838 L160.846135,122.288085 L161.846135,122.288781 L161.844742,124.288781 L160.844742,124.288085 L160.663365,124.287958 L159.386265,124.287064 L159.274323,124.286986 L158.002031,124.286089 C157.934997,124.286042 157.866188,124.285993 157.79491,124.285943 L156.776828,124.285219 C156.6407,124.285123 156.495262,124.285019 156.338872,124.284908 L155.846952,124.284553 L154.846953,124.283819 L154.84842,122.28382 Z M331.843486,122.278731 L331.844964,124.27873 L330.844964,124.279469 L330.160457,124.279973 L330.009408,124.280084 L328.912948,124.280891 C328.844573,124.280941 328.778115,124.28099 328.712949,124.281037 L327.544473,124.28189 C327.472309,124.281942 327.397686,124.281996 327.319981,124.282053 L326.199526,124.282866 L325.84504,124.283123 L324.845041,124.283845 L324.843597,122.283845 L325.843596,122.283123 L326.025259,122.282991 L327.318526,122.282053 L327.432849,122.28197 L328.711485,122.281038 L328.810281,122.280965 L329.863982,122.280191 C329.957691,122.280122 330.055816,122.28005 330.158983,122.279974 L330.843486,122.27947 L331.843486,122.278731 Z" transform="translate(239.8477, 123.2999) rotate(157) translate(-239.8477, -123.2999)" fill="#EECC66" fill-rule="nonzero"></path>
        <path id="Line-2" d="M410.75396,187.378424 L411.625535,187.868686 L410.645013,189.611837 L409.773437,189.121576 L397.773437,182.371576 L396.22397,181.5 L397.773437,180.628424 L409.773437,173.878424 L410.645013,173.388163 L411.625535,175.131314 L410.75396,175.621576 L402.08,180.5 L447.803724,180.5 L447.803724,220.546875 L398.5,220.546875 L398.5,218.546875 L445.803,218.546 L445.803,182.5 L402.08,182.5 L410.75396,187.378424 Z" fill="#000000" fill-rule="nonzero"></path>
        <path id="Line-2" d="M73.7539599,186.378424 L74.6255354,186.868686 L73.6450129,188.611837 L72.7734374,188.121576 L60.7734374,181.371576 L59.2239698,180.5 L60.7734374,179.628424 L72.7734374,172.878424 L73.6450129,172.388163 L74.6255354,174.131314 L73.7539599,174.621576 L65.08,179.5 L110.803724,179.5 L110.803724,219.546875 L61.5,219.546875 L61.5,217.546875 L108.803,217.546 L108.803,181.5 L65.08,181.5 L73.7539599,186.378424 Z" transform="translate(85.9087, 199.5234) scale(-1, -1) translate(-85.9087, -199.5234)" fill="#000000" fill-rule="nonzero"></path>
        <text id="p12" font-family="Helvetica" font-size="20" font-weight="normal" fill="#090909">
            <tspan x="238.630859" y="166">p</tspan>
            <tspan x="249.753906" y="166">12</tspan>
        </text>
        <text id="p21" font-family="Helvetica" font-size="20" font-weight="normal" fill="#090909">
            <tspan x="238.630859" y="240">p</tspan>
            <tspan x="249.753906" y="240">21</tspan>
        </text>
        <text id="p22" font-family="Helvetica" font-size="20" font-weight="normal" fill="#090909">
            <tspan x="465.630859" y="202">p</tspan>
            <tspan x="476.753906" y="202">22</tspan>
        </text>
        <text id="p11" font-family="Helvetica" font-size="20" font-weight="normal" fill="#090909">
            <tspan x="12.1054688" y="202">p</tspan>
            <tspan x="23.2285156" y="202">11</tspan>
        </text>
        <text id="hidden" font-family="Helvetica" font-size="20" font-weight="normal" fill="#55565A">
            <tspan x="123.941406" y="273">hidden</tspan>
        </text>
        <text id="emission-probabiliti" font-family="Helvetica" font-size="16" font-weight="normal" fill="#55565A">
            <tspan x="52.421875" y="123"> emission </tspan>
            <tspan x="34.6171875" y="142">probabilities</tspan>
        </text>
        <text id="observed" font-family="Helvetica" font-size="20" font-weight="normal" fill="#55565A">
            <tspan x="21.7246094" y="57">observed</tspan>
        </text>
        <circle id="Oval" stroke="#000000" fill="#FFFDFD" cx="154" cy="159" r="4.5"></circle>
        <circle id="Oval" stroke="#000000" fill="#FFFDFD" cx="357" cy="160" r="4.5"></circle>
        <text id="t11" font-family="Helvetica" font-size="12" font-weight="normal" fill="#EECC66">
            <tspan x="132.203125" y="133">t</tspan>
            <tspan x="135.537109" y="133">11</tspan>
        </text>
        <text id="t22" transform="translate(329.5, 118.5) rotate(39) translate(-329.5, -118.5)" font-family="Helvetica" font-size="12" font-weight="normal" fill="#CCDDAA">
            <tspan x="321.318359" y="120">t</tspan>
            <tspan x="324.652344" y="120">22</tspan>
        </text>
        <text id="t23" font-family="Helvetica" font-size="12" font-weight="normal" fill="#CCDDAA">
            <tspan x="365.318359" y="133">t</tspan>
            <tspan x="368.652344" y="133">23</tspan>
        </text>
        <text id="t12" transform="translate(175.5, 120.5) rotate(-36) translate(-175.5, -120.5)" font-family="Helvetica" font-size="12" font-weight="normal" fill="#EECC66">
            <tspan x="167.318359" y="122">t</tspan>
            <tspan x="170.652344" y="122">12</tspan>
        </text>
        <text id="t13" transform="translate(213.4768, 149.3013) rotate(-23) translate(-213.4768, -149.3013)" font-family="Helvetica" font-size="12" font-weight="normal" fill="#EECC66">
            <tspan x="205.295187" y="150.801262">t</tspan>
            <tspan x="208.629172" y="150.801262">13</tspan>
        </text>
        <text id="t21" transform="translate(292.7275, 149.3776) rotate(18) translate(-292.7275, -149.3776)" font-family="Helvetica" font-size="12" font-weight="normal" fill="#CCDDAA">
            <tspan x="284.545817" y="150.877641">t</tspan>
            <tspan x="287.879801" y="150.877641">21</tspan>
        </text>
    </g>
</svg>