<?xml version="1.0" encoding="UTF-8"?>
<svg width="338px" height="226px" viewBox="0 0 338 226" version="1.1" xmlns="http://www.w3.org/2000/svg" xmlns:xlink="http://www.w3.org/1999/xlink">
    <title>Artboard</title>
    <g id="Artboard" stroke="none" stroke-width="1" fill="none" fill-rule="evenodd">
        <rect id="Rectangle" fill-opacity="0.2" fill="#0091FF" x="111" y="11" width="49" height="178"></rect>
        <rect id="Rectangle" fill-opacity="0.2" fill="#FA6400" x="223" y="10" width="49" height="178"></rect>
        <path id="Line" d="M126.885123,57.5953628 L126.798375,58.4800085 L125.902595,67.6149732 L125.853799,68.1125864 L124.858572,68.014994 L124.907369,67.5173807 L125.616,60.282 L122.159274,65.2276712 L88.9097846,112.78649 L88.6232946,113.196275 L87.8037253,112.623295 L88.0902154,112.21351 L121.339704,64.6546911 L124.797,59.708 L118.245562,62.8599549 L117.794963,63.0766582 L117.361556,62.1754597 L117.812155,61.9587564 L126.084058,57.9806131 L126.885123,57.5953628 Z" fill="#FFFFFF" fill-rule="nonzero"></path>
        <path id="Line" d="M135.998439,49.4520105 L136.34558,49.811862 L235.664191,152.766963 L239.882,157.14 L238.047719,150.104097 L237.921581,149.620269 L238.889236,149.367992 L239.015374,149.85182 L241.330969,158.733713 L241.555215,159.593851 L240.703693,159.338832 L231.910773,156.705479 L231.431792,156.562031 L231.718688,155.604069 L232.197669,155.747517 L239.161,157.832 L234.944488,153.461245 L135.625877,50.5061442 L135.278736,50.1462927 L135.998439,49.4520105 Z" fill="#FFFFFF" fill-rule="nonzero"></path>
        <path id="Line" d="M135.743483,49.1766801 L136.196764,49.3877155 L233.963737,94.9053601 L239.434,97.452 L235.193939,91.5465415 L234.902332,91.1403819 L235.714652,90.557169 L236.006258,90.9633286 L241.359441,98.419429 L241.877853,99.1414907 L240.991574,99.209567 L231.839753,99.9125316 L231.341221,99.9508246 L231.264635,98.9537616 L231.763167,98.9154687 L239.011,98.358 L233.541666,95.8119229 L135.774693,50.2942783 L135.321412,50.0832428 L135.743483,49.1766801 Z" fill="#FFFFFF" fill-rule="nonzero"></path>
        <path id="Line" d="M241.558812,57.409631 L241.331734,58.2690255 L238.986895,67.1432426 L238.859163,67.626652 L237.892344,67.3711889 L238.020076,66.8877795 L239.876,59.86 L235.643356,64.2191123 L135.344435,167.507328 L134.99611,167.866034 L134.278698,167.169384 L134.627023,166.810678 L234.925944,63.5224632 L239.159,59.161 L232.188647,61.2251195 L231.709196,61.3669888 L231.425457,60.4080872 L231.904908,60.2662179 L240.706455,57.6618432 L241.558812,57.409631 Z" fill="#FFFFFF" fill-rule="nonzero"></path>
        <path id="Line" d="M232.809343,44.3190816 L233.245131,44.5642122 L241.245131,49.0642122 L242.019864,49.5 L241.245131,49.9357878 L233.245131,54.4357878 L232.809343,54.6809184 L232.319082,53.8093429 L232.754869,53.5642122 L239.089,50 L135,50 L135,49 L239.093,49 L232.754869,45.4357878 L232.319082,45.1906571 L232.809343,44.3190816 Z" fill="#FFFFFF" fill-rule="nonzero"></path>
        <path id="Line" d="M231.309343,103.819082 L231.745131,104.064212 L239.745131,108.564212 L240.519864,109 L239.745131,109.435788 L231.745131,113.935788 L231.309343,114.180918 L230.819082,113.309343 L231.254869,113.064212 L237.591,109.5 L133.5,109.5 L133.5,108.5 L237.591,108.5 L231.254869,104.935788 L230.819082,104.690657 L231.309343,103.819082 Z" fill="#FFFFFF" fill-rule="nonzero"></path>
        <path id="Line" d="M133.291751,107.824254 L133.733749,108.058003 L231.131512,159.566435 L236.489,162.4 L232.553354,156.286432 L232.282718,155.866008 L233.123565,155.324736 L233.394201,155.74516 L238.362421,163.463112 L238.843552,164.210532 L237.954962,164.23358 L228.779268,164.471579 L228.279436,164.484544 L228.253507,163.48488 L228.753339,163.471915 L236.019,163.282 L230.664015,160.45043 L133.266251,108.941997 L132.824254,108.708249 L133.291751,107.824254 Z" fill="#FFFFFF" fill-rule="nonzero"></path>
        <path id="Line" d="M230.287427,52.4432942 L230.787142,52.4601718 L239.960692,52.7700041 L240.849074,52.8000088 L240.362106,53.5436388 L235.333611,61.2224563 L235.059691,61.6407481 L234.223107,61.092909 L234.497027,60.6746171 L238.479,54.593 L233.105583,57.3811568 L133.730281,108.943814 L133.286467,109.174095 L132.825905,108.286467 L133.269719,108.056186 L232.645022,56.4935291 L238.018,53.705 L230.753387,53.4596019 L230.253672,53.4427243 L230.287427,52.4432942 Z" fill="#FFFFFF" fill-rule="nonzero"></path>
        <path id="Line" d="M232.809343,162.319082 L233.245131,162.564212 L241.245131,167.064212 L242.019864,167.5 L241.245131,167.935788 L233.245131,172.435788 L232.809343,172.680918 L232.319082,171.809343 L232.754869,171.564212 L239.091,168 L142,168 L142,167 L239.091,167 L232.754869,163.435788 L232.319082,163.190657 L232.809343,162.319082 Z" fill="#FFFFFF" fill-rule="nonzero"></path>
        <path id="Line" d="M229.89251,115.447316 L230.391888,115.472265 L239.559233,115.930279 L240.447015,115.974634 L239.948095,116.710299 L234.796185,124.306866 L234.515543,124.720677 L233.68792,124.159392 L233.968563,123.745581 L238.049,117.728 L232.638929,120.425874 L142.636273,165.29474 L142.188796,165.51782 L141.742637,164.622867 L142.190114,164.399787 L232.192769,119.53092 L237.601,116.834 L230.341988,116.47102 L229.842611,116.44607 L229.89251,115.447316 Z" fill="#FFFFFF" fill-rule="nonzero"></path>
        <path id="Line" d="M290.809343,162.319082 L291.245131,162.564212 L299.245131,167.064212 L300.019864,167.5 L299.245131,167.935788 L291.245131,172.435788 L290.809343,172.680918 L290.319082,171.809343 L290.754869,171.564212 L297.091,168 L249,168 L249,167 L297.091,167 L290.754869,163.435788 L290.319082,163.190657 L290.809343,162.319082 Z" fill="#FFFFFF" fill-rule="nonzero"></path>
        <path id="Line" d="M89.5762274,112.797014 L89.8896067,113.186621 L122.227911,153.390999 L126.006,158.089 L124.812561,150.91761 L124.730437,150.4244 L125.716855,150.260151 L125.79898,150.753361 L127.306589,159.807482 L127.452588,160.684299 L126.627445,160.35375 L118.106916,156.940456 L117.642773,156.754522 L118.014641,155.826236 L118.478784,156.01217 L125.228,158.716 L121.448698,154.017758 L89.1103933,113.813379 L88.797014,113.423773 L89.5762274,112.797014 Z" fill="#FFFFFF" fill-rule="nonzero"></path>
        <path id="Line" d="M115.416655,104.663241 L115.84735,104.917212 L123.753867,109.579507 L124.519548,110.031011 L123.736084,110.450901 L115.645932,114.786732 L115.205233,115.02292 L114.732857,114.141523 L115.173556,113.905335 L121.581,110.471 L115.509895,110.347245 L98.489798,109.999896 L97.9899021,109.989694 L98.010306,108.989902 L98.510202,109.000104 L115.530299,109.347453 L121.601,109.471 L115.339408,105.778603 L114.908712,105.524632 L115.416655,104.663241 Z" transform="translate(110.5, 110) rotate(-1.1691) translate(-110.5, -110)" fill="#FFFFFF" fill-rule="nonzero"></path>
        <path id="Line" d="M290.888962,102.66356 L291.321019,102.915208 L299.252532,107.534851 L300.020633,107.982225 L299.239442,108.406328 L291.172759,112.78567 L290.733339,113.024228 L290.256223,112.145387 L290.695643,111.906829 L297.085,108.437 L291.008233,108.34691 L252.980103,107.775709 L252.480159,107.768199 L252.495178,106.768312 L252.995122,106.775822 L291.023251,107.347023 L297.099,107.437 L290.817723,103.779322 L290.385666,103.527674 L290.888962,102.66356 Z" transform="translate(275.9876, 107.7758) rotate(-1.1691) translate(-275.9876, -107.7758)" fill="#FFFFFF" fill-rule="nonzero"></path>
        <path id="Line" d="M290.757405,44.3970253 L291.195647,44.6377418 L299.240691,49.0567083 L300.019787,49.4846486 L299.249494,49.9282394 L291.295355,54.5088138 L290.862065,54.7583335 L290.363025,53.8917544 L290.796315,53.6422346 L297.095,50.014 L291.015011,50.0756315 L249.00505,50.4999745 L248.505076,50.5050247 L248.494975,49.5050758 L248.99495,49.5000255 L291.00491,49.0756825 L297.085,49.014 L290.714214,45.5142247 L290.275972,45.2735083 L290.757405,44.3970253 Z" fill="#FFFFFF" fill-rule="nonzero"></path>
        <circle id="Oval" stroke="#228833" fill="#228833" cx="89" cy="109" r="8.5"></circle>
        <circle id="Oval" stroke="#E02020" fill="#E02020" cx="312" cy="50" r="8.5"></circle>
        <circle id="Oval" stroke="#E02020" fill="#E02020" cx="312" cy="167" r="8.5"></circle>
        <circle id="Oval" stroke="#E02020" fill="#E02020" cx="312" cy="107" r="8.5"></circle>
        <circle id="Oval" stroke="#000000" fill="#FFFFFF" cx="135" cy="50" r="8.5"></circle>
        <circle id="Oval" stroke="#000000" fill="#FFFFFF" cx="134" cy="108" r="8.5"></circle>
        <circle id="Oval" stroke="#000000" fill="#FFFFFF" cx="250" cy="108" r="8.5"></circle>
        <circle id="Oval" stroke="#000000" fill="#FFFFFF" cx="249" cy="50" r="8.5"></circle>
        <circle id="Oval" stroke="#000000" fill="#FFFFFF" cx="249" cy="167" r="8.5"></circle>
        <circle id="Oval" stroke="#000000" fill="#FFFFFF" cx="135" cy="168" r="8.5"></circle>
        <text id="source-s" font-family="Helvetica" font-size="16" font-weight="normal" fill="#FFFFFF">
            <tspan x="14" y="114">source s</tspan>
        </text>
        <text id="workers" font-family="Helvetica" font-size="16" font-weight="normal" fill="#FFFFFF">
            <tspan x="104" y="211">workers</tspan>
        </text>
        <text id="tasks" font-family="Helvetica" font-size="16" font-weight="normal" fill="#FFFFFF">
            <tspan x="226" y="211">tasks</tspan>
        </text>
        <text id="2" font-family="Helvetica" font-size="12" font-weight="normal" fill="#FFFFFF">
            <tspan x="130" y="34">2</tspan>
        </text>
        <text id="8" font-family="Helvetica" font-size="12" font-weight="normal" fill="#FFFFFF">
            <tspan x="307" y="34">8</tspan>
        </text>
        <text id="9" font-family="Helvetica" font-size="12" font-weight="normal" fill="#FFFFFF">
            <tspan x="307" y="91">9</tspan>
        </text>
        <text id="10" font-family="Helvetica" font-size="12" font-weight="normal" fill="#FFFFFF">
            <tspan x="302" y="150">10</tspan>
        </text>
        <text id="1" font-family="Helvetica" font-size="12" font-weight="normal" fill="#FFFFFF">
            <tspan x="85" y="90">1</tspan>
        </text>
        <text id="3" font-family="Helvetica" font-size="12" font-weight="normal" fill="#FFFFFF">
            <tspan x="130" y="93">3</tspan>
        </text>
        <text id="4" font-family="Helvetica" font-size="12" font-weight="normal" fill="#FFFFFF">
            <tspan x="132" y="150">4</tspan>
        </text>
        <text id="5" font-family="Helvetica" font-size="12" font-weight="normal" fill="#FFFFFF">
            <tspan x="246" y="34">5</tspan>
        </text>
        <text id="7" font-family="Helvetica" font-size="12" font-weight="normal" fill="#FFFFFF">
            <tspan x="246" y="151">7</tspan>
        </text>
        <text id="6" font-family="Helvetica" font-size="12" font-weight="normal" fill="#FFFFFF">
            <tspan x="246" y="93">6</tspan>
        </text>
    </g>
</svg>